<?xml version="1.0" encoding="utf-8"?>
<!-- Generator: Adobe Illustrator 27.5.0, SVG Export Plug-In . SVG Version: 6.00 Build 0)  -->
<svg version="1.1" xmlns="http://www.w3.org/2000/svg" xmlns:xlink="http://www.w3.org/1999/xlink" x="0px" y="0px"
	 viewBox="0 0 750 500" style="enable-background:new 0 0 750 500;" xml:space="preserve">
<g id="BACKGROUND">
	<rect style="fill:#E9D7B1;" width="750" height="500"/>
</g>
<g id="OBJECTS">
	<g>
		<path style="fill:none;stroke:#FFFFFF;stroke-linecap:round;stroke-linejoin:round;stroke-miterlimit:10;" d="M375.029,91.183
			c-139.138,0-212.2,209.659-197.703,342.106h197.703h197.703C587.229,300.842,514.166,91.183,375.029,91.183z"/>
		<path style="fill:none;stroke:#FFFFFF;stroke-linecap:round;stroke-linejoin:round;stroke-miterlimit:10;" d="M375.029,91.183
			c-50.854,0-77.557,209.659-72.259,342.106h72.259h72.259C452.586,300.842,425.882,91.183,375.029,91.183z"/>
	</g>
	<g>
		<g>
			<path style="fill:#588157;" d="M456.727,433.289c5.205-16.773-3.47-29.497-19.086-29.208
				c-15.616,0.289-14.748-14.459-26.894-33.545c-12.146-19.086-24.292-14.748-39.908-20.821
				c-15.616-6.073-32.1-45.152-57.259-44.265s-27.762,24.311-44.245,17.371c-16.484-6.94-34.702-10.462-43.378,10.819
				c-8.675,21.281-8.675,38.632-26.027,41.234c-17.351,2.603-26.894,29.697-18.219,38.272c8.676,8.576,1.735,20.143,1.735,20.143
				H456.727z"/>
			<path style="fill:#588157;" d="M238.497,305.877c-2.119,7.266,23.713,12.146,24.002,4.338
				C262.789,302.407,240.522,298.937,238.497,305.877z"/>
		</g>
		<g>
			<path style="fill:#588157;" d="M342.605,423.696c5.462-29.358-9.908-62.852-32.263-65.904
				c-22.355-3.052-27.817,20.844-43.52,20.844c-15.703,0-33.063-7.51-41.451,8.193c-8.388,15.703-1.561,23.896,3.901,32.771
				c5.462,8.876,3.414,13.655,3.414,13.655h105.141L342.605,423.696z"/>
			<g>
				<path style="fill:none;stroke:#000000;stroke-width:0.5;stroke-linecap:round;stroke-linejoin:round;stroke-miterlimit:10;" d="
					M225.371,386.828c36.445,22.075,49.644,46.426,49.644,46.426l13.199,0.228c0,0-6.792-32.238-28.657-55.262"/>
				<path style="fill:none;stroke:#000000;stroke-width:0.5;stroke-linecap:round;stroke-linejoin:round;stroke-miterlimit:10;" d="
					M304.6,357.522c-9.558,32.264-6.827,75.732-6.827,75.732h12.569c0,0-1.605-24.369,27.505-50.304"/>
			</g>
		</g>
		<g>
			<path style="fill:#7A9954;" d="M261.82,415.445c-16.495,1.842-29.219-5.869-44.643-17.822
				c-15.423-11.953-33.231,4.67-48.233-6.148c-15.002-10.818-10.028-26.348-39.679-39.351c-19.827-8.694-35.889-9.366-48.51-0.222
				c-5.035,28.595-5.616,56.369-1.519,81.387h222.769C303.932,412.275,278.315,413.602,261.82,415.445z"/>
			<g>
				<path style="fill:none;stroke:#000000;stroke-width:0.5;stroke-linecap:round;stroke-linejoin:round;stroke-miterlimit:10;" d="
					M106.933,345.619c18.861,33.11,28.115,87.669,28.115,87.669"/>
				<path style="fill:none;stroke:#000000;stroke-width:0.5;stroke-linecap:round;stroke-linejoin:round;stroke-miterlimit:10;" d="
					M200.196,393.187c-2.298,10.605-3.454,40.102-3.454,40.102"/>
				<path style="fill:none;stroke:#000000;stroke-width:0.5;stroke-linecap:round;stroke-linejoin:round;stroke-miterlimit:10;" d="
					M145.425,361.86c-8.063,20.726-16.312,44.09-16.312,44.09s-43.838-22.292-51.147-34.203"/>
				<path style="fill:none;stroke:#000000;stroke-width:0.5;stroke-linecap:round;stroke-linejoin:round;stroke-miterlimit:10;" d="
					M168.944,391.475c-4.977,12.703-25.798,41.814-25.798,41.814"/>
				<path style="fill:none;stroke:#000000;stroke-width:0.5;stroke-linecap:round;stroke-linejoin:round;stroke-miterlimit:10;" d="
					M76.64,405.949c14.066,15.965,37.201,27.339,37.201,27.339"/>
				<path style="fill:none;stroke:#000000;stroke-width:0.5;stroke-linecap:round;stroke-linejoin:round;stroke-miterlimit:10;" d="
					M217.177,397.623c-5.398,13.881-20.235,31.223-20.235,31.223s-14.491-18.464-14.479-33.519"/>
				<path style="fill:none;stroke:#000000;stroke-width:0.5;stroke-linecap:round;stroke-linejoin:round;stroke-miterlimit:10;" d="
					M242.934,413.238c-5.514,8.484-17.66,20.051-17.66,20.051"/>
				<path style="fill:none;stroke:#000000;stroke-width:0.5;stroke-linecap:round;stroke-linejoin:round;stroke-miterlimit:10;" d="
					M287.352,415.463c-3.226,7.114-20.077,17.633-26.619,17.825"/>
			</g>
		</g>
		<g>
			<g>
				<path style="fill:#7A9954;" d="M561.117,160.357c-29.542-2.132,25.06,62.212,25.06,62.212s-42.028-16.194-40.872,0
					c1.157,16.194,47.426,52.824,47.426,52.824s-33.545-17.351-32.003,0s32.003,47.426,32.003,47.426s-23.52-15.038-26.99-4.627
					c-3.47,10.411,38.943,61.307,38.943,61.307s-27.762-16.58-33.16-4.627c-5.398,11.953,18.893,58.415,18.893,58.415h80.403
					C684.637,348.925,645.296,233.238,561.117,160.357z"/>
				<path style="fill:#7A9954;" d="M617.145,265.728c-0.798,13.311,32.942,48.111,32.942,48.111s-25.451-17.734-26.06-3.439
					c-0.609,14.295,20.964,42.058,20.964,42.058s-17.537-14.773-21.481-6.668c-3.945,8.104,25.123,54.107,25.123,54.107
					s-20.825-16.484-26.505-7.331c-3.988,6.426,2.112,28.274,6.101,40.723h42.592c8.192-50.026-2.308-111.065-29.763-167.662
					C631.396,261.473,617.661,257.128,617.145,265.728z"/>
				<g>
					
						<path style="fill:none;stroke:#000000;stroke-width:0.5;stroke-linecap:round;stroke-linejoin:round;stroke-miterlimit:10;" d="
						M547.825,217.022c63.8,31.767,90.592,73.069,117.682,116.617"/>
					
						<path style="fill:none;stroke:#000000;stroke-width:0.5;stroke-linecap:round;stroke-linejoin:round;stroke-miterlimit:10;" d="
						M592.732,275.394c37.401,31.232,60.563,68.213,79.925,102.354"/>
					
						<path style="fill:none;stroke:#000000;stroke-width:0.5;stroke-linecap:round;stroke-linejoin:round;stroke-miterlimit:10;" d="
						M560.729,275.394c63.042,53.21,102.662,117.609,112.349,137.752"/>
					
						<path style="fill:none;stroke:#000000;stroke-width:0.5;stroke-linecap:round;stroke-linejoin:round;stroke-miterlimit:10;" d="
						M592.732,322.82c41.45,42.221,68.055,110.469,68.055,110.469"/>
					
						<path style="fill:none;stroke:#000000;stroke-width:0.5;stroke-linecap:round;stroke-linejoin:round;stroke-miterlimit:10;" d="
						M565.741,318.193c40.679,40.486,64.97,95.431,74.802,115.096"/>
					
						<path style="fill:none;stroke:#000000;stroke-width:0.5;stroke-linecap:round;stroke-linejoin:round;stroke-miterlimit:10;" d="
						M571.525,374.874c29.111,37.594,35.141,58.415,35.141,58.415"/>
					
						<path style="fill:none;stroke:#000000;stroke-width:0.5;stroke-linecap:round;stroke-linejoin:round;stroke-miterlimit:10;" d="
						M586.177,222.569c49.229,31.933,71.198,82.88,71.198,82.88"/>
				</g>
				<path style="fill:#7A9954;" d="M539.618,239.824c-5.095,4.731,11.567,15.905,14.749,12.435
					C557.548,248.789,543.667,236.065,539.618,239.824z"/>
			</g>
			<path style="fill:#7A9954;" d="M650.376,433.289c4.655-50.9-6.941-82.128-52.632-26.027c0,0,8.15-27.273-8.649-22.557
				c-16.799,4.717-28.367,32.967-28.367,32.967s-11.567-38.751-29.497-30.075c-17.93,8.676-10.411,38.172-10.411,38.172
				s-23.61-13.429-31.81-12.624c-25.222,2.477-27.649,20.143-27.649,20.143H650.376z"/>
			<g>
				<g>
					<path style="fill:#4A8171;" d="M579.237,361.378c1.449-1.63,9.919-5.815,18.493-9.793
						c12.447-19.959,21.26-38.238,19.173-41.801c-1.418-2.421-12.345,0.747-26.209,7.772c-5.382,9.411-12.572,21.035-15.808,22.081
						c-2.729,0.882,0.021-7.029,3.488-15.233c-6.644,4.018-13.499,8.698-19.998,13.891c-2.404,10.848-6.368,25.753-10.551,28.867
						c-3.686,2.744-2.244-8.605-0.182-19.441c-6.907,6.71-12.877,14.003-16.989,21.641c-19.811,36.806-21.978,64.12-21.978,64.12
						l14.206-0.193c18.182-16.773,22.2-14.791,45.944-41.886c7.026-8.018,14.414-17.908,21.242-28.016
						C584.205,363.594,577.414,363.428,579.237,361.378z"/>
					<path style="fill:#4A8171;" d="M538.657,344.27c3.178,4.77,14.746-5.981,10.89-10.631
						C545.691,328.989,535.478,339.5,538.657,344.27z"/>
					
						<path style="fill:none;stroke:#000000;stroke-width:0.5;stroke-linecap:round;stroke-linejoin:round;stroke-miterlimit:10;" d="
						M610.854,318.193c-49.74,38.944-79.429,77.212-97.552,115.096"/>
				</g>
				<g>
					<path style="fill:#4A8171;" d="M526.798,264.009c-6.169,0.974-2.313,22.602,2.314,20.463
						C533.738,282.334,532.967,263.035,526.798,264.009z"/>
					<g>
						<path style="fill:#4A8171;" d="M517.929,357.522c0.924-4.887,2.618-11.041,4.446-17.02
							c-0.318-9.217-0.502-19.204-0.782-28.633c-1.772,3.88-3.403,5.622-4.102,1.312c-0.87-5.365,0.608-17.555,2.442-29.085
							c-0.424-3.417-0.948-6.265-1.61-8.316c-3.864-11.953-4.987-14.564-19.752,25.641c-1.478,4.025-2.741,8.106-3.829,12.207
							c2.482,9.672,5.01,21.906,2.751,24.616c-1.61,1.932-4.148-1.248-6.56-5.604c-4.277,30.435-0.319,59.223,2.454,72.715
							c3.721,18.101,10.651,28.126,10.651,28.126l9.264-0.193c8.371-13.079,10.648-48.133,9.91-73.662
							C519.275,365.627,516.346,365.891,517.929,357.522z"/>
						
							<path style="fill:none;stroke:#000000;stroke-width:0.5;stroke-linecap:round;stroke-linejoin:round;stroke-miterlimit:10;" d="
							M513.302,274.297c-0.771,42.739-14.266,124.482-4.627,159.184"/>
					</g>
				</g>
				<g>
					<path style="fill:#4A8171;" d="M437.407,284.898c-3.73,2.334,7.326,14.751,11.182,13.209
						C452.445,296.565,441.263,282.486,437.407,284.898z"/>
					<g>
						<path style="fill:#4A8171;" d="M491.496,369.362c-1.324-3.218-2.791-6.426-4.373-9.61c-2.623,5.07-5.562,10.274-6.264,9.61
							c-0.961-0.909-2.348-17.101-3.047-26.053c-2.797-4.399-5.775-8.694-8.876-12.846c0.104,5.92-0.108,13.212-1.751,13.808
							c-1.674,0.607-4.603-13.208-6.687-24.407c-7.163-8.446-14.683-16.012-21.979-22.252c0.956,3.176,1.362,6.142,0.396,7.838
							c-1.901,3.336-10.283-8.964-17.24-20.065c-7.313-4.25-13.768-6.404-18.555-5.824c-6.911,0.838-6.578,5.971-2.338,14.159
							c8.797,9.514,23.004,18.363,24.571,21.003c1.313,2.213-8.418-1.706-14.022-4.098c5.04,7.453,10.949,15.925,16.779,25.072
							c6.501,2.784,14.102,7.242,17.042,13.626c2.594,5.633-0.813,6.865-5.179,6.58c3.247,6.144,6.208,12.447,8.65,18.83
							c18.562,48.53,48.341,58.748,48.341,58.748l9.264-0.193C506.227,433.289,510.888,416.481,491.496,369.362z"/>
						
							<path style="fill:none;stroke:#000000;stroke-width:0.5;stroke-linecap:round;stroke-linejoin:round;stroke-miterlimit:10;" d="
							M413.335,291.431c41.61,36.402,79.378,127.785,83.629,142.051"/>
					</g>
				</g>
				<g>
					<path style="fill:#4A8171;" d="M437.847,369.566c8.055,7.607,3.825,10.951-0.587,8.489
						c-3.83-2.138-14.483-11.383-21.063-17.221c-3.239-1.15-6.52-2.256-9.835-3.311c-4.895-1.559-9.491-2.844-13.818-3.909
						c5.927,4.01,13.401,9.52,11.243,10.476c-2.175,0.963-24.631-7.98-41.003-14.751c-17.446-0.266-24.598,4.757-22.8,6.958
						c1.788,2.189,17.129,13.293,32.935,23.506c10.848-1.087,23.348-1.379,30.868,1.627c11.057,4.42-5.826,6.549-16.292,7.401
						c4.507,2.645,8.678,4.923,12.144,6.559c5.331,2.515,12.415,5.409,20.018,8.395c10.668-0.018,25.155,0.604,30.328,3.865
						c3.209,2.022,0.074,4.098-5.1,5.905c9.903,3.879,18.289,7.357,22.049,9.711c9.546,5.977,16.632,10.218,16.632,10.218h13.147
						C497.169,406.854,472.035,385.22,437.847,369.566z"/>
					
						<path style="fill:none;stroke:#000000;stroke-width:0.5;stroke-linecap:round;stroke-linejoin:round;stroke-miterlimit:10;" d="
						M350.588,356.475c40.486,9.145,103.336,32.28,141.508,77.007"/>
				</g>
			</g>
		</g>
		<g>
			<g>
				<path style="fill:#4A8171;" d="M79.178,361.86c13.963-25.314,30.556-25.903,57.605-46.558c31.81-24.292,0-21.978-3.47-32.389
					c-3.47-10.411,32.967-27.183,57.837-55.523c24.87-28.34-5.784-19.086-6.362-31.81c-0.578-12.724,42.799-26.027,60.729-37.594
					c15.509-10.006,2-20.428-39.356-11.46C133.767,200.319,90.003,284.934,79.178,361.86z"/>
				<g>
					
						<path style="fill:none;stroke:#000000;stroke-width:0.5;stroke-linecap:round;stroke-linejoin:round;stroke-miterlimit:10;" d="
						M250.401,147.174c-42.478,8.69-71.011,25.27-81.036,31.44"/>
					
						<path style="fill:none;stroke:#000000;stroke-width:0.5;stroke-linecap:round;stroke-linejoin:round;stroke-miterlimit:10;" d="
						M184.788,195.579c-22.749,7.712-41.275,19.652-50.905,26.984"/>
					
						<path style="fill:none;stroke:#000000;stroke-width:0.5;stroke-linecap:round;stroke-linejoin:round;stroke-miterlimit:10;" d="
						M200.592,209.071c-46.264,15.812-77.817,42.341-93.659,60.887"/>
					
						<path style="fill:none;stroke:#000000;stroke-width:0.5;stroke-linecap:round;stroke-linejoin:round;stroke-miterlimit:10;" d="
						M133.313,282.913c-26.027,9.832-45.415,37.949-45.415,37.949"/>
				</g>
			</g>
			<g>
				<path style="fill:#4A8171;" d="M190.957,272.695c-13.11,8.097-19.363,11.182-25.49,3.085
					c-6.127-8.097-16.346-3.039-26.082,12.94c-9.736,15.979-11.496,13.735-28.78,19.449c-8.291,2.741-16.928,9.683-23.677,16.166
					c-4.619,17.002-7.719,33.931-9.262,50.399l0.298,3.486c7.729-17.998,28.55-35.734,47.058-35.349
					c18.508,0.386,24.249-8.159,32.367-22.009c8.119-13.85,16.204-11.375,42.429-18.974c26.225-7.6,32.395-25.412,25.454-31.929
					C218.334,263.441,204.067,264.598,190.957,272.695z"/>
				<g>
					
						<path style="fill:none;stroke:#000000;stroke-width:0.5;stroke-linecap:round;stroke-linejoin:round;stroke-miterlimit:10;" d="
						M80.754,351.902c24.604-27.925,99.897-65.49,147.078-76.59"/>
					
						<path style="fill:none;stroke:#000000;stroke-width:0.5;stroke-linecap:round;stroke-linejoin:round;stroke-miterlimit:10;" d="
						M212.947,265.753c-22.375,11.183-37.434,27.581-37.434,27.581s32.288,0.734,47.001-4.554"/>
					
						<path style="fill:none;stroke:#000000;stroke-width:0.5;stroke-linecap:round;stroke-linejoin:round;stroke-miterlimit:10;" d="
						M165.467,275.779c-18.729,16.98-35.433,40.032-35.433,40.032s23.546-1.828,34.137-3"/>
					
						<path style="fill:none;stroke:#000000;stroke-width:0.5;stroke-linecap:round;stroke-linejoin:round;stroke-miterlimit:10;" d="
						M110.606,308.168c-6.018,12.339-12.384,28.147-12.384,28.147s32.092,4.627,46.027,1.542"/>
				</g>
				<path style="fill:#4A8171;" d="M180.161,262.236c0.497,4.408,24.581-2.747,22.556-8.531
					C200.693,247.921,179.005,251.97,180.161,262.236z"/>
			</g>
			<g>
				<path style="fill:#4A8171;" d="M210.236,337.858c-11.567,4.627-24.291,5.784-37.016-1.542
					c-12.724-7.326-26.991-7.711-42.414-5.398c-15.423,2.314-21.778,11.182-35.566,10.025c-4.744-0.398-9.043,0.3-12.641,1.386
					c-3.982,19.005-6.027,37.745-6.073,55.662c17.265-22.732,22.277-26.202,40.399-25.045c18.122,1.157,25.861,8.097,36.836,8.097
					c10.975,0,20.229-11.567,31.026-14.266c10.796-2.699,24.334,1.542,36.652-3.085c12.317-4.627,24.888-20.05,21.494-25.834
					C239.541,332.074,221.804,333.231,210.236,337.858z"/>
				<g>
					
						<path style="fill:none;stroke:#000000;stroke-width:0.5;stroke-linecap:round;stroke-linejoin:round;stroke-miterlimit:10;" d="
						M77.667,374.733c26.194-25.487,45.615-25.694,82.344-19.139c36.729,6.555,82.922-17.737,82.922-17.737"/>
					
						<path style="fill:none;stroke:#000000;stroke-width:0.5;stroke-linecap:round;stroke-linejoin:round;stroke-miterlimit:10;" d="
						M203.2,340.162l-18.412,15.893c0,0,29.472,5.322,46.932,1.467"/>
					
						<path style="fill:none;stroke:#000000;stroke-width:0.5;stroke-linecap:round;stroke-linejoin:round;stroke-miterlimit:10;" d="
						M173.221,336.315c-16.194,10.796-31.902,16.461-31.902,16.461s14.557,16.87,34.194,18.205"/>
					
						<path style="fill:none;stroke:#000000;stroke-width:0.5;stroke-linecap:round;stroke-linejoin:round;stroke-miterlimit:10;" d="
						M138.856,329.972c-15.76,8.271-34.705,26.323-34.705,26.323s15.986,10.942,24.774,18.438"/>
				</g>
				<path style="fill:#4A8171;" d="M178.426,324.845c-2.892,4.916,16.773,8.809,18.508,5.128
					C198.669,326.29,181.318,319.928,178.426,324.845z"/>
			</g>
		</g>
	</g>
	<g>
		<g>
			<g>
				<path style="fill:#D39F3F;" d="M443.127,165.503c-21.356,26.624-68.496,90.648-63.359,254.116l-0.354,13.67h-11.422
					c0,0-3.966-72.52,19.548-161.494C411.055,182.821,443.127,165.503,443.127,165.503z"/>
				<path style="fill:#52593F;" d="M443.127,165.503c22.2-10.411,60.922-8.675,73.357-1.735
					c12.435,6.94,22.173,14.443,22.173,14.443s-18.414,7.535-38.079,3.775C480.914,178.228,443.127,165.503,443.127,165.503z"/>
				<path style="fill:#21261F;" d="M443.127,165.503c0,0,15.962,5.374,32.536,10.169
					C470.041,170.902,459.395,163.096,443.127,165.503z"/>
				<g style="opacity:0.67;">
					
						<path style="fill:none;stroke:#52593F;stroke-width:0.5;stroke-linecap:round;stroke-linejoin:round;stroke-miterlimit:10;" d="
						M454.461,161.518c22.982,2.829,50.932,21.174,50.932,21.174"/>
					
						<path style="fill:none;stroke:#52593F;stroke-width:0.5;stroke-linecap:round;stroke-linejoin:round;stroke-miterlimit:10;" d="
						M474.26,158.446c28.921,8.504,48.622,23.777,48.622,23.777"/>
					
						<path style="fill:none;stroke:#52593F;stroke-width:0.5;stroke-linecap:round;stroke-linejoin:round;stroke-miterlimit:10;" d="
						M506.302,160.305c13.539,6.383,23.551,14.697,28.186,19.33"/>
				</g>
				<g>
					<path style="fill:#52593F;" d="M443.127,165.503c-20.05-28.918-53.885-33.545-73.549-34.702
						c-19.665-1.157-52.921,2.024-43.667,18.797c9.254,16.773,41.775,24.002,65.422,24.87
						C414.979,175.336,443.127,165.503,443.127,165.503z"/>
					<path style="fill:#21261F;" d="M377.805,173.349c4.673,0.593,9.247,0.962,13.528,1.119c23.647,0.868,51.794-8.965,51.794-8.965
						S414.144,156.487,377.805,173.349z"/>
					<g style="opacity:0.67;">
						
							<path style="fill:none;stroke:#52593F;stroke-width:0.5;stroke-linecap:round;stroke-linejoin:round;stroke-miterlimit:10;" d="
							M324.356,143.517c53.608,0.009,102.962,10.419,118.771,21.987"/>
						
							<path style="fill:none;stroke:#52593F;stroke-width:0.5;stroke-linecap:round;stroke-linejoin:round;stroke-miterlimit:10;" d="
							M400.294,135.794c17.251,7.021,28.676,22.652,28.676,22.652"/>
						
							<path style="fill:none;stroke:#52593F;stroke-width:0.5;stroke-linecap:round;stroke-linejoin:round;stroke-miterlimit:10;" d="
							M353.579,168.111c23.518,2.02,63.083-13.601,63.083-13.601"/>
						
							<path style="fill:none;stroke:#52593F;stroke-width:0.5;stroke-linecap:round;stroke-linejoin:round;stroke-miterlimit:10;" d="
							M334.854,159.17c13.035,1.128,44.22-12.05,44.22-12.05"/>
						
							<path style="fill:none;stroke:#52593F;stroke-width:0.5;stroke-linecap:round;stroke-linejoin:round;stroke-miterlimit:10;" d="
							M325.91,149.598c11.857,1.446,27.668-5.059,27.668-5.059"/>
						
							<path style="fill:none;stroke:#52593F;stroke-width:0.5;stroke-linecap:round;stroke-linejoin:round;stroke-miterlimit:10;" d="
							M366.686,130.588c27.762,9.178,38.25,21.032,38.25,21.032"/>
						
							<path style="fill:none;stroke:#52593F;stroke-width:0.5;stroke-linecap:round;stroke-linejoin:round;stroke-miterlimit:10;" d="
							M342.387,132.209c16.78,7.268,24.299,13.451,24.299,13.451"/>
					</g>
				</g>
				<g>
					<path style="fill:#52593F;" d="M443.127,165.503c-8.868,4.627-31.617,38.173-36.63,63.621
						c-5.012,25.448,3.085,58.608,9.639,57.837c6.555-0.771,8.097-25.448,19.665-51.668c11.567-26.219,19.279-47.041,15.423-55.523
						C447.368,171.287,443.127,165.503,443.127,165.503z"/>
					<g style="opacity:0.67;">
						
							<path style="fill:none;stroke:#52593F;stroke-width:0.5;stroke-linecap:round;stroke-linejoin:round;stroke-miterlimit:10;" d="
							M443.127,165.503c-4.241,23.906-32.774,80.201-26.991,121.458"/>
						
							<path style="fill:none;stroke:#52593F;stroke-width:0.5;stroke-linecap:round;stroke-linejoin:round;stroke-miterlimit:10;" d="
							M406.965,267.805c2.52-12.365,13.445-28.668,13.445-28.668"/>
						
							<path style="fill:none;stroke:#52593F;stroke-width:0.5;stroke-linecap:round;stroke-linejoin:round;stroke-miterlimit:10;" d="
							M405.19,239.137c7.186-13.193,22.176-24.104,22.176-24.104"/>
						
							<path style="fill:none;stroke:#52593F;stroke-width:0.5;stroke-linecap:round;stroke-linejoin:round;stroke-miterlimit:10;" d="
							M415.366,204.154c13.206-10.888,20.482-14.053,20.482-14.053"/>
						
							<path style="fill:none;stroke:#52593F;stroke-width:0.5;stroke-linecap:round;stroke-linejoin:round;stroke-miterlimit:10;" d="
							M431.696,202.111c4.683,16.024,2.476,37.025,2.476,37.025"/>
						
							<path style="fill:none;stroke:#52593F;stroke-width:0.5;stroke-linecap:round;stroke-linejoin:round;stroke-miterlimit:10;" d="
							M422.743,230.269c3.225,13.026,1.031,41.526,1.031,41.526"/>
						
							<path style="fill:none;stroke:#52593F;stroke-width:0.5;stroke-linecap:round;stroke-linejoin:round;stroke-miterlimit:10;" d="
							M439.799,178.212c3.81,10.716,5.498,26.777,4.509,36.82"/>
					</g>
					<path style="fill:#21261F;" d="M451.224,179.77c-3.856-8.483-8.097-14.267-8.097-14.267
						c-6.54,3.412-20.622,22.552-29.58,42.573c20.665-14.617,28.519-37.742,28.519-37.742s5.203,14.629,7.234,30.531
						C452.189,191.33,453.151,184.009,451.224,179.77z"/>
				</g>
				<g>
					<path style="fill:#52593F;" d="M443.127,165.503c19.279,0,39.233,16.282,52.246,38.65
						c13.013,22.368,11.278,47.238,6.362,61.986c-4.916,14.748-16.194,32.967-21.689,32.678
						c-5.495-0.289-13.013-25.737-18.797-56.68S443.127,165.503,443.127,165.503z"/>
					<g style="opacity:0.67;">
						
							<path style="fill:none;stroke:#52593F;stroke-width:0.5;stroke-linecap:round;stroke-linejoin:round;stroke-miterlimit:10;" d="
							M480.046,298.818c12.811-63.197-3.181-110.758-36.919-133.314"/>
						
							<path style="fill:none;stroke:#52593F;stroke-width:0.5;stroke-linecap:round;stroke-linejoin:round;stroke-miterlimit:10;" d="
							M493.341,284.473c0.875-23.249-10.861-52.312-10.861-52.312"/>
						
							<path style="fill:none;stroke:#52593F;stroke-width:0.5;stroke-linecap:round;stroke-linejoin:round;stroke-miterlimit:10;" d="
							M470.476,281.078c10.727-26.795,10.184-58.035,10.184-58.035"/>
						
							<path style="fill:none;stroke:#52593F;stroke-width:0.5;stroke-linecap:round;stroke-linejoin:round;stroke-miterlimit:10;" d="
							M504.039,257.117c-11.847-31.463-25.567-42.085-25.567-42.085"/>
						
							<path style="fill:none;stroke:#52593F;stroke-width:0.5;stroke-linecap:round;stroke-linejoin:round;stroke-miterlimit:10;" d="
							M463.788,254.836c2.088-25.423,8.458-55.484,8.458-55.484"/>
						
							<path style="fill:none;stroke:#52593F;stroke-width:0.5;stroke-linecap:round;stroke-linejoin:round;stroke-miterlimit:10;" d="
							M502.384,220.624c-11.349-18.683-35.353-30.523-35.353-30.523"/>
						
							<path style="fill:none;stroke:#52593F;stroke-width:0.5;stroke-linecap:round;stroke-linejoin:round;stroke-miterlimit:10;" d="
							M457.311,223.043c0.178-23.126,4.051-40.82,4.051-40.82"/>
						
							<path style="fill:none;stroke:#52593F;stroke-width:0.5;stroke-linecap:round;stroke-linejoin:round;stroke-miterlimit:10;" d="
							M485.621,190.1c-14.829-11.005-31.16-15.431-31.16-15.431"/>
					</g>
				</g>
				<g>
					<path style="fill:#52593F;" d="M342.394,232.162c16.142,6.582,63.037-19.811,73.884-31.378
						c10.847-11.567,26.848-35.281,26.848-35.281s-31.039,1.446-60.247,14.749C353.672,193.555,331.405,227.682,342.394,232.162z"/>
					<g style="opacity:0.67;">
						
							<path style="fill:none;stroke:#52593F;stroke-width:0.5;stroke-linecap:round;stroke-linejoin:round;stroke-miterlimit:10;" d="
							M340.222,230.269c29.645-36.425,102.905-64.765,102.905-64.765"/>
						
							<path style="fill:none;stroke:#52593F;stroke-width:0.5;stroke-linecap:round;stroke-linejoin:round;stroke-miterlimit:10;" d="
							M350.491,233.201c3.181-9.861,17.5-27.839,17.5-27.839"/>
						
							<path style="fill:none;stroke:#52593F;stroke-width:0.5;stroke-linecap:round;stroke-linejoin:round;stroke-miterlimit:10;" d="
							M344.84,213.523c12.013-6.666,32.007-14.17,32.007-14.17"/>
						
							<path style="fill:none;stroke:#52593F;stroke-width:0.5;stroke-linecap:round;stroke-linejoin:round;stroke-miterlimit:10;" d="
							M367.992,228.926c1.008-13.971,19.548-36.183,19.548-36.183"/>
						
							<path style="fill:none;stroke:#52593F;stroke-width:0.5;stroke-linecap:round;stroke-linejoin:round;stroke-miterlimit:10;" d="
							M359.241,196.428c15.252-6.632,41.052-10.869,41.052-10.869"/>
						
							<path style="fill:none;stroke:#52593F;stroke-width:0.5;stroke-linecap:round;stroke-linejoin:round;stroke-miterlimit:10;" d="
							M393.286,217.022c4.632-18.84,21.346-38.81,21.346-38.81"/>
						
							<path style="fill:none;stroke:#52593F;stroke-width:0.5;stroke-linecap:round;stroke-linejoin:round;stroke-miterlimit:10;" d="
							M382.88,180.252c26.581-6.827,41.623-6.729,41.623-6.729"/>
						
							<path style="fill:none;stroke:#52593F;stroke-width:0.5;stroke-linecap:round;stroke-linejoin:round;stroke-miterlimit:10;" d="
							M411.113,205.362c11.611-14.795,21.315-35.392,21.315-35.392"/>
					</g>
				</g>
			</g>
			<g>
				<path style="fill:#D39F3F;" d="M297.411,199.352c17.044,21.271,64.918,77.384,59.781,221.855l0.354,12.081h11.422
					c0,0,3.967-64.093-19.548-142.727C325.905,211.927,297.411,199.352,297.411,199.352z"/>
				<g>
					<g>
						<path style="fill:#7A9954;" d="M250.401,183.038c-7.776,2.13-57.13,37.78-65.613,40.005
							c-6.837,1.794,0.284,9.016,20.697,7.163c8.744-7.731,15.516-18.471,19.886-21.135c4.171-2.543-3.837,11.614-8.407,19.348
							c1.785-0.383,3.63-0.818,5.55-1.325c4.509-1.19,9.044-2.481,13.517-3.822c1.76-7.198,4.533-16.23,7.465-16.768
							c3.109-0.57,3.357,7.483,3.12,13.475c24.011-7.736,43.82-15.826,43.82-15.826l6.974-4.801
							C280.798,184.783,258.178,180.908,250.401,183.038z"/>
						<g style="opacity:0.59;">
							
								<path style="fill:none;stroke:#7A9954;stroke-width:0.5;stroke-linecap:round;stroke-linejoin:round;stroke-miterlimit:10;" d="
								M250.401,183.038c-10.668,12.541-24.681,43.194-24.681,43.194"/>
							
								<path style="fill:none;stroke:#7A9954;stroke-width:0.5;stroke-linecap:round;stroke-linejoin:round;stroke-miterlimit:10;" d="
								M222.514,199.942c-16.615,12.988-20.254,22.391-34.918,29.112"/>
							
								<path style="fill:none;stroke:#7A9954;stroke-width:0.5;stroke-linecap:round;stroke-linejoin:round;stroke-miterlimit:10;" d="
								M267.262,184.055c-11.045,5.74-13.894,17.921-15.506,34.243"/>
						</g>
						<path style="fill:#21261F;" d="M257.228,216.454c18.967-6.485,33.209-12.3,33.209-12.3l6.974-4.801
							c-6.269-5.498-13.393-9.471-20.253-12.175C262.56,192.196,258.392,207.269,257.228,216.454z"/>
					</g>
					<g>
						<path style="fill:#7A9954;" d="M273.342,269.135c-4.626-14.795-5.946-27.257-4.112-29.999c1.2-1.793,4.744,4.488,7.879,10.95
							c1.347-5.407,2.93-10.784,4.757-16.132c-2.66-5.074-4.983-10.604-4.221-13.331c0.786-2.816,4.125,0.441,7.405,4.686
							c3.441-8.737,7.546-17.391,12.362-25.958c0,0-22.783-9.784-29.338-2.73c-6.555,7.054-13.881,26.495-8.097,61.695
							c5.784,35.199,11.182,43.57,11.182,43.57C271.04,290.865,271.748,279.945,273.342,269.135z"/>
						<g style="opacity:0.55;">
							
								<path style="fill:none;stroke:#7A9954;stroke-width:0.5;stroke-linecap:round;stroke-linejoin:round;stroke-miterlimit:10;" d="
								M257.879,235.197c5.568,26.894,9.524,42.524,13.763,49.747"/>
							
								<path style="fill:none;stroke:#7A9954;stroke-width:0.5;stroke-linecap:round;stroke-linejoin:round;stroke-miterlimit:10;" d="
								M268.074,196.622c-6.94,18.911,11.439,44.696,11.439,44.696"/>
						</g>
					</g>
					<g>
						<path style="fill:#7A9954;" d="M297.411,147.174c0.804-2.269,5.544-3.801,9.996-4.759c1.945-3.02,4.309-6.181,6.746-9.284
							c-3.685,0.302-7.296,0.296-7.071-0.922c0.327-1.774,9.232-5.766,14.109-7.829c3.746-4.659,6.755-8.612,7.417-10.93
							c1.542-5.398-12.724-1.582-34.317,22.344c-21.592,23.926,3.118,63.559,3.118,63.559c4.227-14.937,2.651-36.304,6.406-49.251
							C299.975,149.889,296.711,149.15,297.411,147.174z"/>
						<path style="fill:#21261F;" d="M287.883,177.006c3.5,12.673,9.529,22.347,9.529,22.347
							c3.564-12.597,3.013-29.749,5.001-42.585C290.977,161.043,287.372,168.779,287.883,177.006z"/>
						<g style="opacity:0.55;">
							
								<path style="fill:none;stroke:#7A9954;stroke-width:0.5;stroke-linecap:round;stroke-linejoin:round;stroke-miterlimit:10;" d="
								M310.484,137.959c-10.022,1.807-22.998,8.942-25.041,21.28"/>
							
								<path style="fill:none;stroke:#7A9954;stroke-width:0.5;stroke-linecap:round;stroke-linejoin:round;stroke-miterlimit:10;" d="
								M326.89,116.804c-12.258,3.009-28.926,15.041-28.926,15.041"/>
						</g>
					</g>
					<g>
						<path style="fill:#7A9954;" d="M333.236,162.893c1.921-1.625,12.154-0.214,19.603,1.082
							c4.942-1.875,10.373-3.774,15.666-5.547c-5.495-1.977-12.021-4.365-13.969-5.249c-3.101-1.407,13.538-3.214,31.123-0.262
							c6.145-1.9,10.294-3.109,10.294-3.109s-29.171-15.952-63.873-2.635c-34.702,13.317-41.257,24.446-39.715,35.049
							c1.542,10.604,5.046,17.13,5.046,17.13c13.076-2.617,26.923-20.99,40.435-28.769c0.81-0.466,1.734-0.952,2.751-1.452
							C335.942,166.814,331.706,164.188,333.236,162.893z"/>
						<path style="fill:#21261F;" d="M340.598,169.132c-2.101-1.046-4.11-2.153-5.548-3.174
							c-21.574-3.065-37.638,7.564-37.638,33.394c13.076-2.617,26.923-20.99,40.435-28.769
							C338.657,170.117,339.581,169.632,340.598,169.132z"/>
						<g style="opacity:0.55;">
							
								<path style="fill:none;stroke:#7A9954;stroke-width:0.5;stroke-linecap:round;stroke-linejoin:round;stroke-miterlimit:10;" d="
								M362.015,160.647c-30.61-5.265-53.09-5.173-67.298,9.963"/>
							
								<path style="fill:none;stroke:#7A9954;stroke-width:0.5;stroke-linecap:round;stroke-linejoin:round;stroke-miterlimit:10;" d="
								M390.744,151.362c-29.842-5.234-54.046-4.072-75.476,3.148"/>
						</g>
					</g>
					<g>
						<path style="fill:#7A9954;" d="M371.023,179.635c-21.207-9.89-46.502-13.119-58.608-6.112
							c-12.106,7.006-15.004,25.83-15.004,25.83c7.999,4.452,14.028,4.322,21.643,2.619c-6.362-4.369-9.79-8.049-4.712-9.228
							c3.973-0.923,11.294,2.455,17.46,5.948c3.365-0.849,7.111-1.708,11.362-2.468c-5.963-3.568-12.337-7.996-8.312-8.556
							c5.698-0.793,19.375,0.918,28.331,7.22c19.115,1.096,34.663,8.315,40.506,9.267
							C411.113,205.362,392.23,189.525,371.023,179.635z"/>
						<g style="opacity:0.55;">
							
								<path style="fill:none;stroke:#7A9954;stroke-width:0.5;stroke-linecap:round;stroke-linejoin:round;stroke-miterlimit:10;" d="
								M300.435,188.916c1.096-2.496,13.908,3.827,13.908,3.827"/>
							
								<path style="fill:none;stroke:#7A9954;stroke-width:0.5;stroke-linecap:round;stroke-linejoin:round;stroke-miterlimit:10;" d="
								M302.413,184.656c8.749-4.982,35.434,12.618,35.434,12.618"/>
							
								<path style="fill:none;stroke:#7A9954;stroke-width:0.5;stroke-linecap:round;stroke-linejoin:round;stroke-miterlimit:10;" d="
								M312.415,173.523c25.431-2.939,75.571,26.42,75.571,26.42"/>
						</g>
					</g>
				</g>
			</g>
		</g>
		<g>
			<g>
				
					<ellipse transform="matrix(0.2285 -0.9735 0.9735 0.2285 39.8732 562.8057)" style="fill:#707B97;" cx="375.029" cy="256.246" rx="12.958" ry="12.958"/>
				<path style="fill:#707B97;" d="M372.791,261.211c-3.86,0-7.415-0.903-10.483-2.524c1.143,5.988,6.4,10.516,12.721,10.516
					c7.156,0,12.958-5.801,12.958-12.958c0-1.074-0.145-2.112-0.391-3.109C384.062,257.868,378.598,261.211,372.791,261.211z"/>
			</g>
			<polygon style="fill:#FFFFFF;" points="375.029,269.203 358.588,269.203 367.992,286.103 375.029,288.21 382.066,286.103 
				391.469,269.203 			"/>
			<path style="fill:#FFFFFF;" d="M375.029,279.561h-46.655c0,0,2.314,16.045,17.351,22.326
				c15.038,6.281,21.338,12.25,16.646,27.773c-4.693,15.523,12.658,10.502,12.658,10.502s17.351,5.022,12.658-10.502
				c-4.692-15.524,1.608-21.492,16.646-27.773c15.038-6.281,17.351-22.326,17.351-22.326H375.029z"/>
			<g>
				<path style="fill:#FFFFFF;" d="M418.599,405.355c-17.036-14.509-20.516-35.994-20.516-35.994
					c28.219-7.588,41.543-20.752,39.409-39.701h-62.464h-62.464c-2.134,18.949,11.19,32.113,39.409,39.701
					c0,0-3.48,21.485-20.516,35.994c-17.036,14.509-15.028,27.934-15.028,27.934h58.599h58.599
					C433.627,433.289,435.635,419.864,418.599,405.355z"/>
				<g style="opacity:0.52;">
					<g>
						
							<path style="fill:none;stroke:#D39F3F;stroke-width:0.5;stroke-linecap:round;stroke-linejoin:round;stroke-miterlimit:10;" d="
							M334.586,329.66c2.892,29.019,27.954,39.701,27.954,39.701s0.616,21.556-12.049,42.724
							c-12.665,21.168-8.676,21.168-8.676,21.168"/>
						
							<path style="fill:none;stroke:#D39F3F;stroke-width:0.5;stroke-linecap:round;stroke-linejoin:round;stroke-miterlimit:10;" d="
							M415.946,329.66c-2.892,29.019-27.955,39.701-27.955,39.701s-0.616,21.556,12.049,42.724s8.676,21.168,8.676,21.168"/>
					</g>
					<g>
						
							<path style="fill:none;stroke:#D39F3F;stroke-width:0.5;stroke-linecap:round;stroke-linejoin:round;stroke-miterlimit:10;" d="
							M357.473,329.66c1.265,29.019,12.227,39.701,12.227,39.701s0.269,21.556-5.27,42.724c-5.539,21.168-3.795,21.168-3.795,21.168
							"/>
						
							<path style="fill:none;stroke:#D39F3F;stroke-width:0.5;stroke-linecap:round;stroke-linejoin:round;stroke-miterlimit:10;" d="
							M393.059,329.66c-1.265,29.019-12.227,39.701-12.227,39.701s-0.269,21.556,5.27,42.724
							c5.539,21.168,3.795,21.168,3.795,21.168"/>
					</g>
				</g>
			</g>
			<g>
				<path style="fill:#707B97;" d="M282.576,431.264c14.705-4.771,29.988-101.604,29.988-101.604s2.791-1.924,8.719-2.936
					c5.928-1.012,9.977,1.301,9.977,1.301s2.603-4.193,7.519-4.627c4.916-0.434,9.398,4.049,9.398,4.049s4.338-4.772,11.423-4.772
					c7.085,0,10.7,4.338,10.7,4.338s6.217-4.338,12.001-4.338c5.784,0,10.757,5.061,10.757,5.061s2.173-4.916,8.071-5.061
					c5.898-0.145,10.814,4.627,10.814,4.627s2.182-6.507,8.176-5.928c5.994,0.578,7.497,4.916,7.497,4.916s5.004-1.591,7.028-1.012
					c2.024,0.578,2.849,4.382,2.849,4.382s15.948,81.072,40.24,101.604h-47.625L413.335,329.66h-30.658l-4.906,101.604
					l-45.306-0.096l13.302-101.508h-11.182c-4.417,38.071-11.103,72.05-20.243,101.604H282.576z"/>
				<g style="opacity:0.66;">
					
						<path style="fill:none;stroke:#707B97;stroke-width:0.5;stroke-linecap:round;stroke-linejoin:round;stroke-miterlimit:10;" d="
						M327.067,337.858c-2.314,21.4-16.484,81.261-21.4,93.407"/>
					
						<path style="fill:none;stroke:#707B97;stroke-width:0.5;stroke-linecap:round;stroke-linejoin:round;stroke-miterlimit:10;" d="
						M318.349,340.937c-4.873,35.093-14.994,70.217-14.994,70.217"/>
				</g>
				<g style="opacity:0.66;">
					
						<line style="fill:none;stroke:#707B97;stroke-width:0.5;stroke-linecap:round;stroke-linejoin:round;stroke-miterlimit:10;" x1="355.407" y1="335.544" x2="348.566" y2="394.978"/>
					
						<line style="fill:none;stroke:#707B97;stroke-width:0.5;stroke-linecap:round;stroke-linejoin:round;stroke-miterlimit:10;" x1="369.702" y1="329.66" x2="366.454" y2="374.733"/>
				</g>
				<g style="opacity:0.66;">
					
						<path style="fill:none;stroke:#707B97;stroke-width:0.5;stroke-linecap:round;stroke-linejoin:round;stroke-miterlimit:10;" d="
						M421.684,334.388c4.574,19.664,18.719,82.031,21.334,88.876"/>
					
						<path style="fill:none;stroke:#707B97;stroke-width:0.5;stroke-linecap:round;stroke-linejoin:round;stroke-miterlimit:10;" d="
						M432.428,345.32c8,30.711,24.194,76.113,33.159,85.656"/>
				</g>
			</g>
			<g>
				<g>
					<polygon style="fill:#707B97;" points="328.373,279.561 321.284,329.66 351.374,329.66 351.374,279.561 					"/>
					<g style="opacity:0.57;">
						
							<line style="fill:none;stroke:#707B97;stroke-width:0.5;stroke-linecap:round;stroke-linejoin:round;stroke-miterlimit:10;" x1="329.959" y1="329.66" x2="334.586" y2="279.561"/>
						
							<line style="fill:none;stroke:#707B97;stroke-width:0.5;stroke-linecap:round;stroke-linejoin:round;stroke-miterlimit:10;" x1="343.713" y1="279.561" x2="341.816" y2="329.182"/>
					</g>
				</g>
				<g>
					<polygon style="fill:#707B97;" points="366.396,279.468 364.95,329.66 401.966,329.66 395.953,279.468 					"/>
					<g style="opacity:0.57;">
						
							<line style="fill:none;stroke:#707B97;stroke-width:0.5;stroke-linecap:round;stroke-linejoin:round;stroke-miterlimit:10;" x1="375.029" y1="329.66" x2="372.18" y2="279.561"/>
						
							<line style="fill:none;stroke:#707B97;stroke-width:0.5;stroke-linecap:round;stroke-linejoin:round;stroke-miterlimit:10;" x1="383.458" y1="279.468" x2="387.687" y2="329.66"/>
						
							<line style="fill:none;stroke:#707B97;stroke-width:0.5;stroke-linecap:round;stroke-linejoin:round;stroke-miterlimit:10;" x1="390.744" y1="279.561" x2="397.339" y2="329.182"/>
					</g>
				</g>
				<g>
					<polygon style="fill:#707B97;" points="400.294,279.561 409.774,329.66 432.428,329.66 421.684,279.561 					"/>
					<g style="opacity:0.57;">
						
							<line style="fill:none;stroke:#707B97;stroke-width:0.5;stroke-linecap:round;stroke-linejoin:round;stroke-miterlimit:10;" x1="405.433" y1="279.561" x2="415.366" y2="329.66"/>
						
							<line style="fill:none;stroke:#707B97;stroke-width:0.5;stroke-linecap:round;stroke-linejoin:round;stroke-miterlimit:10;" x1="414.632" y1="279.468" x2="425.607" y2="329.182"/>
					</g>
				</g>
			</g>
		</g>
		<g>
			<g>
				<g>
					<path style="fill:#D39F3F;" d="M265.185,385.828c-16.616,13.293-23.679,47.426-23.679,47.426h21.602
						C260.845,420.905,262.345,404.151,265.185,385.828z"/>
					<path style="fill:#21261F;" d="M262.436,408.665c-10.764,9.308-11.762,13.442-11.762,13.442s-0.236-2.126-3.485-7.777
						c-3.894,10.281-5.683,18.924-5.683,18.924h21.602C261.832,426.289,261.753,417.923,262.436,408.665z"/>
					
						<path style="opacity:0.6;fill:none;stroke:#D39F3F;stroke-width:0.5;stroke-linecap:round;stroke-linejoin:round;stroke-miterlimit:10;" d="
						M265.185,385.828c-10.801,21.809-12.601,47.426-12.601,47.426"/>
				</g>
				<g>
					<path style="fill:#D39F3F;" d="M252.585,433.254c-8.031-30.187-28.525-46.249-28.525-46.249
						c6.189,17.099,9.768,32.758,9.416,46.249H252.585z"/>
					<path style="fill:#21261F;" d="M230.541,408.428c2.075,8.88,3.133,17.2,2.935,24.826h19.109
						c-0.532-1.999-0.939-0.286-1.57-2.16C246.696,423.305,235.401,412.599,230.541,408.428z"/>
					
						<path style="opacity:0.6;fill:none;stroke:#D39F3F;stroke-width:0.5;stroke-linecap:round;stroke-linejoin:round;stroke-miterlimit:10;" d="
						M224.06,387.005c12.047,18.348,17.24,30.117,17.447,46.249"/>
				</g>
				<g>
					<path style="fill:#D39F3F;" d="M197.888,403.898c28.04,0,45.696,19.455,52.55,29.356h-26.275
						C219.854,422.361,212.564,412.21,197.888,403.898z"/>
					
						<path style="opacity:0.6;fill:none;stroke:#D39F3F;stroke-width:0.5;stroke-linecap:round;stroke-linejoin:round;stroke-miterlimit:10;" d="
						M197.888,403.898c33.025,12.047,40.434,29.356,40.434,29.356"/>
				</g>
				<g>
					<g>
						<path style="fill:#D39F3F;" d="M294.888,397.875c-27.817,5.68-41.541,19.525-48.811,35.379h25.963
							C274.491,420.206,282.953,408.618,294.888,397.875z"/>
						
							<path style="opacity:0.6;fill:none;stroke:#D39F3F;stroke-width:0.5;stroke-linecap:round;stroke-linejoin:round;stroke-miterlimit:10;" d="
							M294.888,397.875c-26.886,10.204-36.002,35.379-36.002,35.379"/>
					</g>
					<path style="fill:#D39F3F;" d="M301.742,405.144c-5.19-4.671-13.501,6.854-9.347,8.101
						C296.549,414.491,303.819,407.014,301.742,405.144z"/>
				</g>
			</g>
			<g>
				<g>
					<path style="fill:#7A9954;" d="M449.772,433.254c5.38-16.052,18.405-31.425,18.569-35.263
						c0.164-3.838-34.386,7.711-48.15,30.855c0,0,2.908-21.255,14.044-39.541c11.135-18.286,18.355-23.957,15.437-28.47
						c0,0-37.949,20.624-51.342,62.43c0,0,8.648-48.684,5.586-50.318c-5.757-3.072-26.392,31.135-30.725,53.596
						c-3.328-37.237,14.029-78.05,11.548-76.827c-28.629,14.111-48.101,53.403-52.491,83.54H449.772z"/>
					<g style="opacity:0.62;">
						
							<path style="fill:none;stroke:#7A9954;stroke-width:0.5;stroke-linecap:round;stroke-linejoin:round;stroke-miterlimit:10;" d="
							M468.341,397.991c-32.996,21.995-38.233,35.263-38.233,35.263"/>
						
							<path style="fill:none;stroke:#7A9954;stroke-width:0.5;stroke-linecap:round;stroke-linejoin:round;stroke-miterlimit:10;" d="
							M449.671,360.834c-28.701,27.996-44.109,72.455-44.109,72.455"/>
						
							<path style="fill:none;stroke:#7A9954;stroke-width:0.5;stroke-linecap:round;stroke-linejoin:round;stroke-miterlimit:10;" d="
							M403.914,372.946c-18.695,39.715-20.219,60.343-20.219,60.343"/>
						
							<path style="fill:none;stroke:#7A9954;stroke-width:0.5;stroke-linecap:round;stroke-linejoin:round;stroke-miterlimit:10;" d="
							M384.737,349.714c-25.121,37.351-32.292,83.54-32.292,83.54"/>
					</g>
				</g>
				<g>
					<path style="fill:#21261F;" d="M373.169,426.287c-0.768-8.843-0.375-17.881,0.636-26.505l-0.001-0.001
						c-2.888,7.379-4.68,23.965-1.479,31.194L373.169,426.287z"/>
					<path style="fill:#21261F;" d="M398.329,423.263v6.748c3.268-11.564,8.695-24.136,16.279-37.715
						C408.136,400.859,402.203,411.169,398.329,423.263z"/>
					<path style="fill:#21261F;" d="M452.669,401.753c-10.934,5.069-24.875,14.307-32.479,27.093
						c7.658-7.847,21.569-18.692,32.037-22.162C459.206,404.37,457.692,402.038,452.669,401.753z"/>
				</g>
			</g>
		</g>
	</g>
	<g>
		<path style="fill:#7A9954;" d="M435.494,224.631c-1.573,11.122-7.007,15.734-14.965,16.092c8.878,1.08,13.866,6.444,14.965,16.092
			c1.099-9.648,6.087-15.012,14.965-16.092C442.501,240.365,437.067,235.753,435.494,224.631z"/>
		<path style="fill:#7A9954;" d="M513.302,108.232c-1.573,11.122-7.007,15.734-14.965,16.092c8.878,1.08,13.866,6.444,14.965,16.092
			c1.099-9.648,6.088-15.012,14.965-16.092C520.31,123.967,514.875,119.355,513.302,108.232z"/>
		<path style="fill:#D39F3F;" d="M401.996,214.915c-0.95,6.716-4.231,9.501-9.036,9.716c5.36,0.652,8.372,3.891,9.036,9.716
			c0.664-5.825,3.676-9.064,9.036-9.716C406.228,224.415,402.946,221.63,401.996,214.915z"/>
		<path style="fill:#707B97;" d="M282.576,73.659c-0.95,6.716-4.231,9.501-9.036,9.716c5.36,0.652,8.372,3.891,9.036,9.716
			c0.664-5.825,3.676-9.064,9.036-9.716C286.807,83.159,283.526,80.374,282.576,73.659z"/>
		<path style="fill:#D39F3F;" d="M213.381,281.952c-1.592,11.258-7.093,15.926-15.148,16.288
			c8.986,1.094,14.035,6.523,15.148,16.288c1.113-9.765,6.162-15.195,15.147-16.288C220.474,297.878,214.973,293.21,213.381,281.952
			z"/>
		<path style="fill:#707B97;" d="M675.545,200.734c-1.592,11.258-7.093,15.926-15.148,16.288
			c8.986,1.094,14.035,6.523,15.148,16.288c1.113-9.765,6.162-15.195,15.148-16.288C682.638,216.66,677.137,211.992,675.545,200.734
			z"/>
		<path style="fill:#D39F3F;" d="M537.961,301.132c-1.167,8.249-5.197,11.67-11.099,11.935c6.584,0.801,10.284,4.78,11.099,11.935
			c0.815-7.155,4.515-11.134,11.099-11.935C543.158,312.801,539.128,309.381,537.961,301.132z"/>
		<path style="fill:#D39F3F;" d="M98.222,147.304c-1.167,8.249-5.197,11.67-11.099,11.935c6.584,0.801,10.284,4.78,11.099,11.935
			c0.815-7.155,4.515-11.134,11.099-11.935C103.419,158.973,99.388,155.553,98.222,147.304z"/>
	</g>
	<g>
		<g>
			<path style="fill:none;stroke:#FFFFFF;stroke-linecap:round;stroke-linejoin:round;stroke-miterlimit:10;" d="M375.029,91.183
				c-208.17,0-317.482,209.659-295.793,342.106h295.793h295.793C692.51,300.842,583.198,91.183,375.029,91.183z"/>
			<g>
				<rect x="48.981" y="431.264" style="fill:#21261F;" width="652.095" height="10.67"/>
				<polygon style="fill:#42353B;" points="375.029,441.935 74.512,441.935 102.66,469.148 375.029,469.148 647.397,469.148 
					675.545,441.935 				"/>
			</g>
		</g>
		<g>
			
				<ellipse style="fill:none;stroke:#FFFFFF;stroke-linecap:round;stroke-linejoin:round;stroke-miterlimit:10;" cx="375.029" cy="53.011" rx="36.796" ry="26.027"/>
			<circle style="fill:#FFFFFF;" cx="375.029" cy="83.375" r="13.013"/>
			<path style="fill:#EDE7E2;" d="M373.003,88.995c-3.939,0-7.558-0.957-10.642-2.679c1.335,5.768,6.493,10.072,12.667,10.072
				c7.187,0,13.013-5.826,13.013-13.013c0-0.92-0.098-1.817-0.28-2.683C384.327,85.533,378.843,88.995,373.003,88.995z"/>
		</g>
	</g>
	<g style="opacity:0.61;">
		<path style="fill:#FFFFFF;" d="M463.788,83.375h208.868c-3.393-16.465-17.421-19.939-39.962-13.013
			c3.801-17.351-18.32-11.978-29.552,0c-11.792-38.619-57.05-22.844-110.661,6.507C486.037,69.805,476.376,72.259,463.788,83.375z"
			/>
		<path style="fill:#FFFFFF;" d="M538.657,204.219h140.638c0.048-9.68-5.279-15.939-33.545-7.597
			c-1.723-12.642-14.84-12.356-36.342-2.556C628.798,166.098,599.224,173.853,538.657,204.219z"/>
		<path style="fill:#FFFFFF;" d="M46.558,233.201h144.92c-3.02-13.516-14.175-19.875-47.229-6.969
			c-1.417-14.115-12.578-15.752-37.315,0C104.625,211.354,90.917,207.481,46.558,233.201z"/>
		<path style="fill:#FFFFFF;" d="M141.319,122.704h144.124c-2.224-13.852-11.784-18.752-35.042-6.94
			c-5.421-18.283-13.804-33.794-74.889,0C170.6,108.064,160.472,108.418,141.319,122.704z"/>
	</g>
</g>
</svg>
