<?xml version="1.0" encoding="utf-8"?>
<!-- Generator: Adobe Illustrator 27.5.0, SVG Export Plug-In . SVG Version: 6.00 Build 0)  -->
<svg version="1.1" xmlns="http://www.w3.org/2000/svg" xmlns:xlink="http://www.w3.org/1999/xlink" x="0px" y="0px"
	 viewBox="0 0 1200 800" style="enable-background:new 0 0 1200 800;" xml:space="preserve">
<g id="bg">
	<rect y="0" transform="matrix(-1 -1.224647e-16 1.224647e-16 -1 1200 800)" style="fill:#0A4F55;" width="1200" height="800"/>
</g>
<g id="Object">
	<g>
		<defs>
			<rect id="SVGID_1_" y="0" transform="matrix(-1 -1.224647e-16 1.224647e-16 -1 1200 800)" width="1200" height="800"/>
		</defs>
		<clipPath id="SVGID_00000044162230482728217940000001111775079062821253_">
			<use xlink:href="#SVGID_1_"  style="overflow:visible;"/>
		</clipPath>
		<g style="clip-path:url(#SVGID_00000044162230482728217940000001111775079062821253_);">
			<g>
				<path style="fill:#242477;" d="M783.204,369.121c-0.077-0.21-0.305-0.341-0.574-0.161c-1.833,0.695-3.605,1.581-5.352,2.463
					c-4.978,2.516-9.77,5.401-14.418,8.48c-7.477,4.953-14.593,10.442-21.382,16.298c-9.177,7.917-17.76,16.512-25.81,25.569
					c-10.387,11.685-19.878,24.155-28.576,37.143c-10.648,15.901-20.111,32.586-28.566,49.75
					c-10.324,20.96-19.145,42.647-26.745,64.736c-9.089,26.42-16.436,53.426-22.421,80.711
					c-7.195,32.802-12.421,66.023-16.152,99.392c-4.433,39.647-6.753,79.519-7.498,119.401c-0.201,10.772-0.283,21.546-0.263,32.32
					c0,0.239,0.152,0.416,0.405,0.416c4.973,0,9.945,0,14.918,0c0.286,0,0.531-0.246,0.503-0.533
					c-0.339-3.498-0.575-7.009-0.804-10.516c-0.632-9.674-1.045-19.362-1.313-29.052c-0.409-14.804-0.458-29.619-0.188-44.426
					c0.34-18.617,1.191-37.225,2.57-55.794c1.587-21.367,3.873-42.685,6.945-63.89c3.347-23.106,7.627-46.083,13.013-68.803
					c5.626-23.735,12.467-47.194,20.78-70.131c8.373-23.102,18.251-45.682,29.938-67.306c11.789-21.814,25.447-42.653,41.158-61.849
					c15.966-19.508,34.067-37.271,54.115-52.569c5.055-3.857,10.232-7.553,15.516-11.09
					C783.304,369.566,783.33,369.304,783.204,369.121z"/>
				<g>
					<path style="fill:#008C83;" d="M922.292,465.717c-0.385-9.828-2.138-19.607-4.545-29.126
						c-2.121-8.075-11.255-11.934-18.405-14.341c-11.291-3.801-23.23-5.579-34.949-7.502c-11.675-1.915-23.604-3.527-34.906-7.145
						c-6.71-2.148-16.328-5.799-16.54-14.171c-0.065-2.562,0.111-5.665,1.956-7.652c1.538-1.655,3.883-1.905,6.016-1.691
						c3.09,0.31,6.085,1.43,8.932,2.618c3.776,1.576,7.426,3.449,11.033,5.376c8.894,4.751,17.569,9.9,26.453,14.671
						c9.033,4.852,18.35,9.733,28.203,12.702c4.184,1.261,15.228,3.788,13.722-4.187c-0.12-0.636-0.315-1.261-0.561-1.859
						c-1.024-2.487-2.37-4.89-3.64-7.257c-4.138-7.715-8.958-15.078-14.521-21.843c-9.184-11.169-20.404-20.603-33.154-27.452
						c-10.372-5.571-21.643-9.395-33.22-11.497c-8.567-1.555-17.313-2.192-26.015-1.88c-3.891,0.139-7.858,0.38-11.692,1.111
						c-5.829,1.112-11.669,3.677-15.622,8.224c-3.712,4.27-5.339,9.737-6.345,15.198c-0.88,4.775-1.077,10.214-3.507,14.533
						c-0.797,1.417-2.02,3.048-3.774,3.17c-2.5,0.175-4.557-2.481-5.861-4.265c-3.09-4.226-5.11-9.15-8.074-13.479
						c-5.918-8.643-13.706-15.852-22.669-21.257c-7.109-4.287-14.964-6.972-23.342-6.345c-8.89,0.665-17.384,4.286-25.549,7.603
						c-8.756,3.557-16.805,8.315-24.107,14.323c-11.502,9.462-21.596,21.54-28.333,34.871c-2.805,5.55-4.739,11.648-5.458,17.833
						c-0.355,3.055-1.003,10.439,3.62,10.822c2.592,0.215,5.178-1.846,7.04-3.38c3.434-2.829,6.75-5.666,10.512-8.071
						c7.719-4.934,16.309-8.362,25.219-10.438c10.178-2.372,20.894-3.246,31.326-2.717c1.88,0.095,12.821,0.341,10.771,4.651
						c-0.463,0.973-1.342,1.758-2.172,2.418c-1.547,1.229-3.538,0.955-5.462,1.187c-9.695,1.169-19.356,2.771-28.839,5.122
						c-12.986,3.219-26.085,7.812-36.989,15.759c-7.308,5.326-13.353,12.303-16.746,20.745c-2.905,7.226-3.735,15.079-3.363,22.812
						c0.348,7.22,1.697,14.332,3.137,21.399c0.624,3.062,1.271,6.122,1.778,9.206c0.937,5.693,1.081,11.573,3.164,17.02
						c0.923,2.414,2.906,5.882,5.992,4.438c0.849-0.397,1.569-1.066,2.171-1.773c0.78-0.917,0.789-1.724,1.066-2.954
						c2.953-13.162,11.117-24.362,21.446-32.8c10.352-8.457,22.757-14.418,35.583-18.051c10.706-3.032,22.458-4.871,33.54-2.991
						c3.878,0.658,7.903,1.832,11.056,4.278c1.73,1.342,4.238,3.827,3.27,6.274c-0.937,2.369-4.092,3.595-6.254,4.459
						c-4.122,1.647-8.472,2.725-12.769,3.805c-11.438,2.874-22.966,5.44-34.092,9.409c-11.226,4.005-22.676,9.467-30.7,18.549
						c-9.413,10.655-12.015,25.833-11.354,39.637c0.647,13.523,4.175,27.687,11.067,39.429c2.055,3.501,9.935,14.753,13.522,6.497
						c0.812-1.87,0.952-3.867,1.305-5.848c0.377-2.11,1.05-4.164,1.855-6.147c2.049-5.042,4.956-9.732,8.064-14.181
						c7.445-10.654,16.435-20.294,25.99-29.077c7.83-7.197,16.401-14.654,26.121-19.191c2.274-1.062,5.676-2.654,8.228-1.619
						c2.761,1.12,1.983,5.23,1.441,7.422c-1.369,5.537-5.102,10.161-9.129,14.044c-4.733,4.564-10.131,8.403-15.523,12.139
						c-10.742,7.441-22.901,14.483-30.819,25.146c-3.468,4.671-5.549,9.941-5.674,15.783c-0.172,8.003,1.219,16.541,5.421,23.478
						c2.213,3.654,6.158,8.205,10.967,7.443c5.81-0.92,7.836-8.538,8.713-13.333c1.72-9.402,5.26-18.404,10.86-26.188
						c4.179-5.808,9.821-11.62,16.789-13.911c4.431-1.457,10.984-1.137,11.982,4.45c0.464,2.599-0.055,5.356-0.665,7.885
						c-0.799,3.311-1.954,6.534-3.192,9.702c-2.943,7.526-6.461,14.813-9.758,22.186c-1.525,3.409-3.02,6.836-4.366,10.32
						c-1.075,2.782-2.34,5.74-2.703,8.722c-1.352,11.11,11.183,19.05,19.46,23.607c4.798,2.641,9.812,4.891,14.92,6.861
						c1.539,0.594,3.089,1.163,4.651,1.694c0.474,0.161,1.051,0.466,1.551,0.418c0.725-0.07,1.614-0.613,2.283-0.875
						c1.78-0.695,3.552-1.412,5.317-2.144c5.672-2.353,11.28-4.868,16.792-7.577c6.476-3.182,12.85-6.62,18.887-10.58
						c5.202-3.412,10.435-7.237,14.321-12.156c2.547-3.224,3.852-6.428,3.314-10.55c-0.61-4.677-2.72-9.146-4.887-13.279
						c-5.867-11.191-13.486-21.395-20.338-31.982c-3.241-5.009-6.421-10.106-8.985-15.502c-1.859-3.913-3.744-8.378-3.486-12.806
						c0.182-3.122,2.052-6.517,5.312-7.268c3.111-0.716,6.073,1.559,8.176,3.568c3.5,3.345,6.235,7.514,8.715,11.64
						c3.147,5.234,5.897,10.704,8.462,16.242c5.222,11.272,9.735,22.903,13.633,34.697c1.358,4.109,2.667,8.248,3.711,12.449
						c0.738,2.969,0.83,6.259,2.521,8.891c1.9,2.957,5.189,3.724,8.445,2.727c5.933-1.817,10.7-7.168,14.491-11.79
						c3.236-3.946,6.127-8.169,8.821-12.501c1.073-1.725,1.991-3.446,2.467-5.435c0.846-3.531,0.415-7.239-0.58-10.692
						c-2.731-9.483-9.023-17.889-15.118-25.47c-7.929-9.862-16.732-18.998-25.535-28.075c-8.35-8.61-16.865-17.1-24.71-26.181
						c-3.089-3.576-6.099-7.258-8.689-11.216c-1.847-2.823-3.661-5.935-4.316-9.286c-0.486-2.488-0.069-5.058,1.872-6.833
						c2.055-1.879,4.964-1.718,7.467-0.97c3.824,1.143,7.291,3.454,10.467,5.806c4.403,3.262,8.466,6.981,12.35,10.838
						c9.267,9.204,17.643,19.33,25.425,29.808c7.319,9.856,14.268,20.128,19.906,31.051c2.01,3.893,3.926,7.921,5.142,12.143
						c0.91,3.158,1.024,6.432,2.26,9.511c2.056,5.124,6.471,9.712,12.249,10.067c7.127,0.438,12.624-5.422,15.953-11.061
						c3.015-5.106,4.951-10.823,6.373-16.555c2.068-8.337,3.057-16.931,3.535-25.495c0.461-8.264,0.598-16.567-0.766-24.756
						c-1.074-6.449-2.979-12.754-5.649-18.722c-4.87-10.886-12.229-20.464-20.828-28.668c-7.681-7.328-16.322-13.561-25.298-19.199
						c-6.103-3.833-12.619-7.152-18.481-11.354c-0.957-0.686-3.138-1.994-3.204-3.376c-0.065-1.368,2.25-1.884,3.208-2.137
						c12.316-3.241,24.297,1.98,33.925,9.471c10.909,8.489,19.423,19.486,28.313,29.95c3.579,4.213,13.414,17.359,19.216,8.752
						c1.486-2.205,2.108-4.965,2.505-7.553C922.389,473.357,922.441,469.517,922.292,465.717z"/>
					<g>
						<path style="fill:#242477;" d="M718.633,418.672c-6.357,0.255-12.766,1.386-18.933,2.931c-0.121,0.03-0.243,0.06-0.364,0.091
							c-0.036,0.009-0.078,0.03-0.121,0.056c-0.046,0.013-0.092,0.031-0.133,0.055c-3.939,2.276-14.289,9.052-7.45,13.996
							c2.59,1.873,6.034,2.557,9.144,2.921c4.071,0.476,8.232,0.32,12.271-0.359c7.166-1.204,15.83-4.454,18.204-12.087
							C733.578,418.798,723.468,418.479,718.633,418.672z"/>
						<path style="fill:#242477;" d="M898.734,520.269c-0.217-3.609-1.467-7.148-2.838-10.462
							c-2.196-5.307-4.945-10.588-8.176-15.349c-0.062-0.092-0.121-0.186-0.182-0.278c-2.023-3.387-5.698-6.13-9.809-5.824
							c-1.448,0.108-2.909,0.666-3.801,1.86c-1.115,1.493-1.06,3.491-0.617,5.215c0.445,1.733,1.111,3.429,1.627,5.144
							c0.583,1.937,1.15,3.879,1.745,5.812c1.297,4.212,2.693,8.427,4.603,12.407c1.519,3.165,3.469,6.635,6.557,8.515
							c2.455,1.495,5.746,1.52,8.178-0.068C898.357,525.719,898.891,522.877,898.734,520.269z"/>
					</g>
				</g>
				<g>
					<path style="fill:#242477;" d="M761.474,383.04c0.017-0.719-0.775,2.591-4.114,3.018c-3.673,0.469-4.751-2.559-4.751-2.559
						s0.19,1.932,0.219,2.14c0.814,5.879,12.473,92.02,8.456,180.008C765.711,507.337,770.501,417.534,761.474,383.04z"/>
					<path style="fill:#203D69;" d="M761.285,565.648c-2.361,31.112-4.619,53.259-4.619,53.259
						C759.003,601.518,760.468,583.545,761.285,565.648z"/>
				</g>
			</g>
			<g>
				<g>
					<path style="fill:#B92B74;" d="M334.054,702.33c4.786,5.805,8.766,12.278,12.241,18.937c2.902,5.689-0.345,12.543-3.199,17.558
						c-4.507,7.92-10.415,15.015-16.124,22.081c-5.687,7.039-11.674,14.035-16.281,21.856c-2.735,4.643-6.365,11.626-2.221,16.511
						c1.268,1.495,2.949,3.177,5.014,3.37c1.721,0.161,3.186-0.89,4.294-2.099c1.606-1.751,2.744-3.916,3.764-6.043
						c1.352-2.822,2.481-5.751,3.558-8.687c2.656-7.241,4.984-14.598,7.623-21.845c2.684-7.37,5.515-14.9,9.625-21.613
						c1.746-2.851,6.761-9.918,9.963-4.6c0.255,0.424,0.462,0.88,0.626,1.347c0.682,1.941,1.138,3.997,1.619,5.995
						c1.568,6.51,2.567,13.167,2.839,19.861c0.448,11.052-1.15,22.15-4.938,32.552c-3.081,8.462-7.566,16.385-13.102,23.48
						c-4.097,5.251-8.764,10.068-13.889,14.323c-2.291,1.902-4.678,3.785-7.238,5.321c-3.893,2.335-8.532,3.845-13.104,3.263
						c-4.293-0.546-8.006-2.837-11.362-5.441c-2.934-2.277-5.816-5.28-9.403-6.507c-1.177-0.403-2.705-0.711-3.769,0.113
						c-1.516,1.173-1.337,3.737-1.173,5.419c0.389,3.985,1.744,7.825,2.257,11.804c1.025,7.946,0.252,16.027-2.11,23.677
						c-1.874,6.067-4.989,11.6-10.089,15.509c-5.412,4.148-12.104,6.408-18.452,8.674c-6.808,2.43-13.825,3.814-21.052,4.105
						c-11.383,0.458-23.295-1.293-33.929-5.469c-4.427-1.739-8.637-4.233-12.197-7.397c-1.759-1.563-5.889-5.447-3.446-8.02
						c1.37-1.443,3.895-1.584,5.739-1.657c3.4-0.135,6.738-0.204,10.11-0.748c6.918-1.116,13.566-3.535,19.708-6.887
						c7.016-3.83,13.577-8.789,19.261-14.404c1.024-1.012,7.143-6.725,3.778-8.14c-0.76-0.32-1.661-0.32-2.471-0.273
						c-1.509,0.087-2.505,1.257-3.722,2.104c-6.128,4.271-12.458,8.277-19.066,11.766c-9.05,4.777-18.865,8.828-29.135,9.846
						c-6.883,0.683-13.886-0.22-20.122-3.309c-5.338-2.644-9.812-6.703-13.538-11.306c-3.479-4.297-6.331-9.043-9.108-13.81
						c-1.203-2.065-2.393-4.141-3.674-6.159c-2.365-3.726-5.278-7.155-6.863-11.324c-0.703-1.848-1.337-4.837,1.159-5.585
						c0.687-0.206,1.439-0.19,2.142-0.093c0.912,0.126,1.328,0.581,2.113,1.143c8.389,6.007,18.752,8.24,28.945,7.795
						c10.215-0.446,20.331-3.362,29.5-7.822c7.654-3.723,15.297-8.658,20.664-15.376c1.878-2.351,3.577-5.071,4.13-8.073
						c0.304-1.647,0.469-4.343-1.329-5.246c-1.741-0.875-4.166,0.032-5.84,0.64c-3.191,1.159-6.223,2.76-9.225,4.332
						c-7.991,4.185-15.877,8.593-24.248,11.994c-8.446,3.432-17.762,6.147-26.967,5.05c-10.799-1.286-20.014-8.623-26.667-16.837
						c-6.518-8.047-11.719-17.927-13.766-28.138c-0.61-3.045-1.844-13.48,4.408-10.594c1.416,0.654,2.513,1.722,3.723,2.673
						c1.29,1.012,2.72,1.842,4.19,2.563c3.737,1.834,7.785,3.03,11.825,3.985c9.675,2.289,19.715,3.21,29.641,3.356
						c8.134,0.12,16.823,0.009,24.681-2.352c1.838-0.552,4.591-1.376,5.52-3.266c1.006-2.045-1.533-3.995-2.958-4.969
						c-3.601-2.462-8.087-3.2-12.363-3.365c-5.026-0.194-10.061,0.364-15.041,0.979c-9.92,1.225-20.445,3.399-30.395,1.347
						c-4.358-0.899-8.229-2.847-11.277-6.117c-4.174-4.479-7.729-10.06-8.864-16.16c-0.598-3.212-0.664-7.819,2.468-9.833
						c3.784-2.434,8.82,0.881,11.763,3.171c5.77,4.49,12.376,7.824,19.535,9.414c5.343,1.186,11.523,1.629,16.666-0.612
						c3.271-1.425,6.848-4.945,4.571-8.642c-1.059-1.72-2.759-3.029-4.396-4.161c-2.142-1.483-4.443-2.734-6.763-3.911
						c-5.512-2.796-11.232-5.163-16.868-7.691c-2.607-1.169-5.205-2.363-7.748-3.666c-2.031-1.04-4.259-2.084-5.985-3.601
						c-6.431-5.652-3.321-16.567-0.918-23.384c1.393-3.951,3.108-7.789,5.02-11.514c0.576-1.123,1.171-2.237,1.791-3.336
						c0.188-0.333,0.362-0.801,0.673-1.029c0.45-0.329,1.233-0.472,1.749-0.664c1.37-0.51,2.746-1.003,4.126-1.484
						c4.436-1.546,8.917-2.967,13.442-4.229c5.316-1.482,10.705-2.767,16.167-3.582c4.707-0.702,9.641-1.185,14.364-0.356
						c3.095,0.543,5.472,1.706,7.265,4.333c2.034,2.98,3.106,6.605,3.975,10.067c2.352,9.374,3.201,19.078,4.683,28.61
						c0.701,4.509,1.483,9.038,2.768,13.423c0.932,3.18,2.13,6.688,4.533,9.083c1.694,1.689,4.491,2.674,6.733,1.442
						c2.14-1.176,2.672-3.983,2.848-6.201c0.294-3.691-0.269-7.463-0.955-11.081c-0.87-4.589-2.087-9.112-3.443-13.579
						c-2.761-9.093-6.109-18.028-9.892-26.744c-1.318-3.036-2.679-6.065-4.223-8.995c-1.091-2.07-2.714-3.994-3.09-6.358
						c-0.422-2.655,1.064-4.768,3.43-5.858c4.311-1.985,9.757-1.359,14.274-0.652c3.857,0.604,7.658,1.541,11.401,2.641
						c1.491,0.438,2.892,0.953,4.176,1.845c2.281,1.584,3.924,3.92,5.115,6.397c3.271,6.803,3.962,14.805,4.345,22.235
						c0.498,9.667,0.128,19.364-0.273,29.027c-0.38,9.167-0.915,18.349-0.767,27.526c0.059,3.614,0.216,7.248,0.754,10.826
						c0.384,2.552,0.933,5.252,2.266,7.498c0.99,1.668,2.537,2.922,4.548,2.946c2.13,0.025,3.708-1.548,4.755-3.249
						c1.6-2.599,2.402-5.685,3.016-8.645c0.851-4.104,1.276-8.296,1.528-12.475c0.601-9.973,0.223-20.017-0.673-29.96
						c-0.843-9.352-2.11-18.754-4.455-27.859c-0.836-3.245-1.794-6.52-3.25-9.549c-1.089-2.265-2.692-4.193-3.555-6.579
						c-1.436-3.971-1.253-8.838,1.863-11.984c3.844-3.88,9.966-3.335,14.738-1.813c4.321,1.378,8.338,3.655,12.069,6.202
						c5.426,3.704,10.368,8.105,15.002,12.749c4.472,4.481,8.779,9.149,12.171,14.518c2.672,4.228,4.796,8.795,6.312,13.561
						c2.765,8.693,3.444,17.907,2.715,26.968c-0.651,8.094-2.408,16.052-4.659,23.841c-1.531,5.296-3.559,10.509-4.764,15.892
						c-0.197,0.879-0.775,2.736-0.109,3.558c0.659,0.814,2.244-0.071,2.919-0.415c8.68-4.423,12.858-13.505,14.536-22.684
						c1.902-10.401,1.159-21.013,0.903-31.512c-0.103-4.227-1.186-16.739,6.509-14.782c1.971,0.501,3.732,1.76,5.276,3.034
						C330.218,697.921,332.203,700.086,334.054,702.33z"/>
					<g>
						<path style="fill:#FDBCBC;" d="M241.792,832.905c-3.757,3.092-7.991,5.711-12.297,7.97c-0.085,0.044-0.169,0.089-0.254,0.133
							c-0.025,0.013-0.06,0.023-0.098,0.03c-0.033,0.016-0.068,0.029-0.104,0.037c-3.407,0.708-12.764,2.112-11.38-4.193
							c0.525-2.388,2.142-4.533,3.731-6.324c2.081-2.345,4.535-4.375,7.185-6.045c4.703-2.962,11.302-5.521,16.545-2.374
							C250.256,825.222,244.65,830.553,241.792,832.905z"/>
						<path style="fill:#FDBCBC;" d="M292.825,683.198c1.715,2.17,2.803,4.826,3.709,7.416c1.449,4.147,2.57,8.561,3.151,12.923
							c0.011,0.084,0.026,0.168,0.038,0.252c0.571,2.963-0.129,6.4-2.632,8.319c-0.881,0.676-1.999,1.102-3.116,0.874
							c-1.397-0.284-2.383-1.453-3.008-2.662c-0.629-1.216-1.113-2.522-1.692-3.764c-0.654-1.402-1.319-2.799-1.964-4.206
							c-1.405-3.064-2.755-6.181-3.693-9.425c-0.745-2.58-1.4-5.553-0.595-8.199c0.64-2.103,2.505-3.794,4.701-4.127
							C289.834,680.28,291.587,681.63,292.825,683.198z"/>
					</g>
				</g>
				<g>
					<path style="fill:#FDBCBC;" d="M284.388,831.419c0.376,0.402-1.762-1.084-3.885,0.373c-2.335,1.603-1.408,3.88-1.408,3.88
						s-0.876-1.199-0.965-1.333c-2.529-3.769-39.749-58.866-86.856-107.033C223.499,758.329,271.971,807.137,284.388,831.419z"/>
					<path style="fill:#FDBCBC;" d="M191.274,727.306c-17.193-16.552-29.762-28.041-29.762-28.041
						C171.703,707.999,181.693,717.509,191.274,727.306z"/>
				</g>
			</g>
			<g>
				<g>
					<path style="fill:#FF9732;" d="M1048.702,797.914c0.522-1.372,0.904-3.346-0.331-4.469c-1.705-1.551-4.656-0.681-6.624-0.373
						c-3.361,0.525-6.849,0.124-10.169-0.491c-4.231-0.784-8.373-2.027-12.424-3.465c-9.098-3.229-17.878-7.47-26.18-12.388
						c-3.647-2.161-7.219-4.47-10.597-7.034c-2.524-1.916-5.038-3.977-7.056-6.437c-0.991-1.209-2.726-3.382-1.803-5.044
						c1.188-2.137,5.01-2.179,7.031-2.076c4.596,0.234,8.934,2.281,12.835,4.582c4.628,2.729,8.909,6.013,13.181,9.256
						c4.378,3.324,8.748,6.692,13.437,9.573c4.052,2.49,8.46,4.721,13.196,5.503c5.826,0.963,11.521-1.063,16.583-3.862
						c4.594-2.54,10.007-6.672,11.163-12.145c0.33-1.561,0.232-3.275-0.673-4.635c-1.176-1.766-3.356-2.49-5.364-2.752
						c-3.494-0.457-6.949,0.421-10.426,0.638c-3.501,0.218-7.026,0.064-10.494-0.462c-5.934-0.9-11.95-2.85-16.863-6.377
						c-3.244-2.329-7.419-6.58-6.242-11.034c0.943-3.569,6.034-4.049,9.028-4.248c5.498-0.365,11.062,0.231,16.528,0.785
						c5.873,0.595,11.743,1.343,17.643,1.629c4.28,0.208,8.517,0.42,11.883-2.645c3.126-2.847,4.837-7.045,6.022-11.012
						c1.32-4.418,2.044-9.009,2.488-13.591c0.298-3.077,0.47-6.173,0.484-9.266c0.002-0.362,0.073-0.831-0.074-1.169
						c-0.208-0.477-0.786-0.963-1.114-1.358c-5.5-6.62-11.367-12.978-17.664-18.847c-3.872-3.609-7.937-7.078-12.383-9.966
						c-3.171-2.06-7.087-4.403-10.981-4.568c-2.854-0.121-5.544,1.533-7.726,3.197c-3.213,2.452-5.976,5.483-8.601,8.539
						c-6.281,7.31-11.809,15.228-18.037,22.583c-2.639,3.117-5.404,6.209-8.602,8.767c-2.209,1.767-4.929,3.58-7.873,3.555
						c-2.176-0.018-4.616-1.262-5.21-3.494c-0.671-2.522,0.874-5.38,2.107-7.476c4.296-7.308,10.818-13.436,17.009-19.12
						c6.698-6.149,13.753-11.937,21.07-17.334c2.484-1.833,4.999-3.643,7.621-5.275c1.965-1.224,4.284-2.06,5.658-4.026
						c1.381-1.976,1.135-4.437-0.152-6.392c-2.401-3.646-6.953-5.765-10.842-7.367c-3.555-1.465-7.25-2.584-10.974-3.53
						c-1.88-0.477-3.736-1-5.69-0.902c-2.68,0.134-5.214,1.222-7.441,2.667c-6.106,3.963-10.615,10.307-14.555,16.294
						c-5.144,7.817-9.547,16.105-13.874,24.392c-4.222,8.088-8.295,16.266-12.838,24.181c-1.85,3.224-3.78,6.415-5.954,9.432
						c-1.66,2.304-3.48,4.607-5.727,6.372c-1.487,1.169-3.322,2.181-5.278,1.962c-1.913-0.214-3.436-1.474-4.055-3.283
						c-0.824-2.406-0.344-5.187,0.206-7.597c0.82-3.592,2.163-7.066,3.638-10.434c3.734-8.523,8.498-16.607,13.582-24.386
						c5.272-8.067,10.988-15.887,17.307-23.169c2.518-2.901,5.138-5.729,7.971-8.327c2.003-1.837,4.145-3.671,6.582-4.911
						c4.328-2.204,8.333-5.681,8.795-10.837c0.473-5.28-3.392-9.114-7.992-10.97c-3.938-1.589-8.289-2.04-12.504-2.056
						c-6.459-0.025-12.907,1.015-19.185,2.463c-7.348,1.695-14.807,3.76-21.593,7.108c-5.471,2.699-10.505,6.243-14.888,10.487
						c-7.78,7.531-13.318,17.035-17.227,27.069c-3.217,8.259-5.282,16.863-7.162,25.505c-0.603,2.772-1.128,5.606-2.048,8.296
						c-0.307,0.897-0.94,3.014-2.27,2.677c-0.66-0.167-1.179-0.879-1.556-1.392c-0.836-1.139-1.508-2.436-2.095-3.717
						c-2.124-4.632-2.544-9.792-1.824-14.796c1.439-10.005,6.578-19.217,11.719-27.754c2.265-3.761,4.65-7.451,6.858-11.245
						c1.444-2.481,3.093-5.168,3.65-8.027c2.155-11.066-16.267-4.128-20.459-2.357c-3.513,1.484-6.931,3.192-10.263,5.046
						c-1.906,1.06-3.784,2.17-5.633,3.326c-0.868,0.543-1.756,1.062-2.521,1.749c-2.081,1.868-3.197,4.555-3.835,7.222
						c-1.849,7.731-0.723,16.183,0.304,23.947c1.274,9.631,3.151,19.174,4.305,28.822c0.5,4.181,0.89,8.406,0.767,12.621
						c-0.093,3.167-0.43,6.572-1.957,9.409c-1.497,2.782-4.156,4.148-7.225,4.617c-1.516,0.232-3.165,0.123-4.383-0.907
						c-1.324-1.12-1.799-2.942-2.018-4.591c-0.245-1.854-0.263-3.749-0.146-5.652c0.071-1.018,0.177-2.09,0.311-3.211
						c0.338-2.632,0.843-5.248,1.289-7.764c1.281-7.208,2.809-14.369,4.05-21.584c1.258-7.316,2.414-14.775,2.384-22.217
						c-0.012-3.016,0.077-7.391-2.061-9.849c-2.666-3.065-6.419,1.503-8.1,3.216c-8.544,8.708-15.74,18.801-20.495,30.069
						c-3.745,8.874-5.932,18.368-6.444,27.986c-0.42,7.9,0.253,15.846,1.903,23.58c1.168,5.476,2.81,10.86,4.957,16.033
						c0.769,1.851,1.576,3.717,2.561,5.466c2.683,4.554,6.448,8.521,11.683,9.946c4.164,1.134,8.503,0.57,12.692-0.104
						c3.361-0.541,7.318-1.536,10.629-0.263c1.766,0.679,2.533,2.085,1.871,3.94c-0.555,1.554-1.604,2.95-2.642,4.209
						c-2.502,3.038-5.342,5.716-7.649,8.93c-4.513,6.283-7.625,13.5-9.235,21.061c-1.01,4.746-1.284,9.681-0.087,14.419
						c1.16,4.59,3.629,8.682,6.428,12.452c4.057,5.464,8.552,10.879,13.681,15.359c10.792,9.428,24.717,15.765,38.761,18.457
						c4.91,0.941,9.895,1.164,14.852,0.428c2.134-0.317,4.347-0.775,6.287-1.756c1.157-0.585,2.369-1.462,2.537-2.847
						c0.177-1.453-0.781-2.676-1.793-3.601c-2.46-2.249-5.677-3.643-8.374-5.593c-6.208-4.487-11.417-10.213-15.534-16.658
						c-4.644-7.269-8.193-15.469-10.414-23.801c-0.456-1.712-2.605-9.3,1.595-8.215c0.811,0.209,1.567,0.661,2.246,1.141
						c0.143,0.101,0.34,0.207,0.455,0.341c0.47,0.549,0.761,1.657,1.068,2.313c0.45,0.961,0.905,1.919,1.368,2.874
						c3.262,6.738,6.845,13.338,10.955,19.599c5.634,8.582,12.39,16.923,21.125,22.516c5.854,3.748,12.572,5.975,19.557,5.899
						c6.046-0.065,11.931-1.763,17.44-4.166c5.144-2.244,9.966-5.114,14.831-7.894c2.005-1.146,4.022-2.281,6.118-3.252
						c2.889-1.339,5.813-2.709,8.393-4.598c1.189-0.87,2.575-1.972,3.073-3.425c0.566-1.65-0.394-2.957-1.838-3.673
						c-0.342-0.17-0.788-0.413-1.176-0.454c-0.499-0.053-1.129,0.146-1.63,0.196c-0.732,0.074-1.467,0.128-2.202,0.161
						c-1.354,0.061-2.711,0.052-4.063-0.025c-11.025-0.626-21.264-5.789-29.666-12.732c-8.256-6.823-15.15-15.468-20.036-24.995
						c-2.111-4.117-3.884-8.465-4.899-12.99c-0.77-3.432-1.209-7.197-0.207-10.63c0.522-1.79,1.764-4.57,3.983-4.628
						c2.081-0.055,3.879,2.084,5.087,3.51c2.374,2.803,4.339,5.958,6.304,9.053c2.519,3.969,4.981,7.973,7.575,11.894
						c5.554,8.397,11.723,16.803,19.809,22.944c3.719,2.824,7.892,5.118,12.429,6.304c4.899,1.28,10.148,1.21,15.128,0.47
						c9.963-1.481,19.466-5.87,27.643-11.664c3.452-2.445,6.734-5.184,9.608-8.295
						C1045.728,802.946,1047.68,800.597,1048.702,797.914z"/>
					<g>
						<path style="fill:#203D69;" d="M907.784,800.009c0.498-1.733,0.249-3.679-0.098-5.416c-0.477-2.39-1.306-4.721-2.382-6.905
							c-1.788-3.631-4.957-8.408-9.542-8.364c-4.225,0.041-2.473,5.836-1.645,8.153c1.334,3.736,3.205,7.346,5.27,10.731
							c0.002,0.004,0.005,0.006,0.008,0.01c0.003,0.005,0.004,0.011,0.008,0.015C901.164,799.943,906.448,804.654,907.784,800.009z"
							/>
						<path style="fill:#203D69;" d="M972.83,633.577c-2.936-1.647-6.951,0.973-9.325,2.556c-2.557,1.705-4.988,3.682-7.191,5.828
							c-2.046,1.824-3.285,4.853-2.655,7.59c0.472,2.052,2.226,3.14,4.231,2.328c1.054-0.427,2.065-1.013,3.101-1.487
							c1.23-0.563,2.463-1.119,3.679-1.71c2.518-1.224,5.047-2.579,7.156-4.444c1.808-1.599,3.324-3.722,3.233-6.237
							C975,636.344,974.356,634.432,972.83,633.577z"/>
					</g>
					<g>
						<path style="fill:#203D69;" d="M863.236,772.112c-0.528,0.162,2.075-0.065,3.195,2.264c1.232,2.56-0.711,4.079-0.711,4.079
							s1.361-0.607,1.505-0.679c4.083-2.019,63.974-31.401,129.012-49.818C952.708,738.879,886.162,757.173,863.236,772.112z"/>
						<path style="fill:#203D69;" d="M996.238,727.958c23.225-5.827,39.898-9.555,39.898-9.555
							C1022.908,720.919,1009.467,724.212,996.238,727.958z"/>
					</g>
				</g>
				<path style="fill:#203D69;" d="M867.193,777.858c2.244-3.331,0.501-4.586-0.77-5.501c-0.523-0.376-0.974-0.701-1.083-1.09
					l-0.025-0.087l-0.084,0.034c-40.348,16.621-82.067,42.009-123.997,75.46c-24.156,19.27-48.768,41.542-73.154,66.196
					c-26.427,26.719-53.284,56.94-79.823,89.824l-0.051,0.063l10.076,8.168l0.049-0.074c0.279-0.421,28.474-42.631,75.5-92.208
					c27.619-29.118,56.233-55.04,85.046-77.048c36.015-27.508,72.445-48.943,108.278-63.707l0.023-0.009L867.193,777.858z"/>
			</g>
			<g>
				<g>
					<g>
						<path style="fill:#0E1B1E;" d="M554.132,635.681c-7.691-11.484-16.954-21.979-26.117-32.294
							c-5.32-5.99-10.721-11.916-16.224-17.742c1.931-0.926,3.8-1.979,5.582-3.168c16.947-11.312,23.86-32.184,18.5-51.57
							c-5.211-18.847-14.602-36.478-24.831-53.028c-3.518-5.692-7.196-11.284-10.99-16.795c-1.888-2.742-3.16-4.651-4.224-7.681
							c-2.264-6.448-4.527-12.896-6.79-19.344c-0.51-1.453-1.021-2.907-1.531-4.361c-0.04-0.113-0.117-0.205-0.212-0.284
							c-0.109-0.143-0.362-0.253-0.806-0.297c-0.119-0.014-0.242-0.02-0.369-0.021c-6.504-0.148-13.511,1.289-19.282,4.28
							c-12.484,6.47-13.056,19.911-8.728,31.971c0.543,1.512,2.369,4.237,2.078,5.65c-0.126,0.612-0.801,1.387-1.104,1.932
							c-1.497,2.692-2.886,5.446-4.194,8.234c-4.3,9.16-7.764,18.772-9.918,28.669c-2.54,11.672-3.328,23.987-0.297,35.647
							c3.369,12.959,11.529,23.733,22.578,31.189c7.345,4.957,15.638,8.452,24.104,10.985c1.931,0.578,4.035,1.38,6.068,1.733
							c2.734,17.639,5.762,35.358,10.161,52.657c1.043,4.103,2.099,8.32,3.832,12.198c0.875,1.956,1.896,4.111,4.38,3.82
							c3.303-0.387,3.816-4.256,4.023-6.943c0.452-5.854-0.503-11.863-1.48-17.618c-0.071-0.417-0.155-0.831-0.228-1.247
							c1.43,3.307,2.93,6.584,4.561,9.796c2.17,4.271,4.519,8.863,7.924,12.304c1.905,1.925,4.613,3.563,7.373,2.362
							c2.426-1.056,2.078-3.742,1.632-5.928c-1.557-7.634-5.246-15.065-8.904-22.122c4.023,5.362,8.218,10.664,12.976,15.392
							c2.893,2.874,6.763,6.802,11.141,6.962C564.782,651.38,556.471,639.173,554.132,635.681z"/>
						<path style="fill:#FFFFFF;" d="M494.14,456.834c-0.783-0.748-2.041-0.485-2.986-0.444c-2.14,0.093-4.256,0.125-6.342-0.461
							c-2.285-0.642-4.341-1.98-5.647-3.991c-1.375-2.117-1.977-4.617-3.62-6.585c-1.278-1.531-2.958-2.547-4.979-1.915
							c-3.586,1.121-3.744,4.928-3.35,8.009c0.727,5.681,2.866,11.739,6.763,16.033c4.254,4.687,13.248,7.821,16.625,0.433
							c0.019-0.041,0.026-0.077,0.037-0.115c0.011-0.022,0.026-0.044,0.034-0.067c0.919-2.705,2.25-5.009,3.427-7.574
							C494.59,459.095,495.148,457.796,494.14,456.834z"/>
					</g>
					<path style="fill:#FFFFFF;" d="M469.418,501.431c-0.043-0.967-2.051-0.597-2.016,0.192c0.18,3.996,0.058,7.98-0.495,11.945
						c-0.174,1.25-0.213,5.166-2.351,3.893c-1.563-0.931-1.764-5.252-1.81-6.748c-0.029-0.958-1.966-0.615-2.016,0.192
						c-0.075,1.215-0.18,2.42-0.403,3.618c-0.149,0.797-0.337,1.584-0.563,2.362c-0.437,0.865-0.759,0.762-0.966-0.309
						c-1.481-1.575-1.474-5.396-1.648-7.383c-0.068-0.779-1.755-0.315-1.946,0.191c-0.37,0.98-1.181,4.693-1.971,5.17
						c-0.625,0.377-0.737-1.116-0.849-2.034c-0.112-0.921-0.019-1.962-0.029-2.884c-0.009-0.964-2.024-0.605-2.016,0.192
						c0.018,1.841-1.026,7.124,2.151,6.945c1.523-0.086,2.468-1.336,3.133-2.835c0.463,2.596,1.416,5.273,3.572,5.448
						c1.42,0.116,2.252-0.975,2.747-2.442c0.858,1.966,2.273,3.31,4.552,2.237c1.902-0.895,2.059-3.35,2.33-5.149
						C469.453,509.853,469.608,505.652,469.418,501.431z"/>
				</g>
				<g>
					<path style="fill:#EA9C2F;" d="M568.796,445.2c-22.984-22.218-74.871-16.708-84.768-15.422
						c-1.492,0.194-2.957,0.556-4.349,1.127c-1.315,0.54-2.561,1.262-2.281,1.987c5.872,15.224,15.51,23.575,15.51,23.575
						l77.312,0.503l4.831,4.393C577.607,451.532,568.796,445.2,568.796,445.2z"/>
					<path style="fill:#0D120E;" d="M571.136,445.366c-3.215-3.108-7.182-5.835-11.792-8.107c-3.054-1.505-6.339-2.076-9.504-1.65
						c-2.875,0.387-4.792,1.433-5.699,3.109c-1.02,1.885-0.723,4.549,0.883,7.917c0.313,0.657,6.861,10.514,7.769,10.521
						l18.968,0.123c0.433,0.003,0.827,0.224,1.055,0.592l2.724,4.391l0.051-0.195C578.129,452.301,571.206,445.435,571.136,445.366z
						"/>
				</g>
				<g>
					<path style="fill:#DC911B;" d="M573.984,458.154l-0.064-0.051c-5.44-4.378-20.072-8.094-43.491-11.047
						c-17.409-2.195-33.436-3.123-33.596-3.132l-0.233-0.013l-6.025,12.82l81.023,3.105l4.781,3.583L573.984,458.154z"/>
					<path style="fill:#0E1B1E;" d="M507.489,457.148c-3.351-1.881-8.43-4.749-8.765-4.981c-0.069-0.057-0.159-0.085-0.249-0.077
						c-0.102,0.009-0.194,0.062-0.253,0.146l-3.192,4.56c-0.073,0.103-0.083,0.238-0.026,0.351c0.056,0.113,0.17,0.186,0.296,0.191
						l12.007,0.456c0.004,0,0.009,0,0.013,0c0.154,0,0.29-0.102,0.332-0.251C507.696,457.389,507.628,457.226,507.489,457.148z"/>
				</g>
				<path style="fill:#F3892E;" d="M497.844,447.149c-0.024-0.13-0.165-3.916-0.215-4.038c-0.897-2.179-9.941-22.665-21.923-7.112
					C463.092,452.373,502.093,470.263,497.844,447.149z"/>
				<g>
					<path style="fill:#0D120E;" d="M499.902,448.065c-0.35-5.878-4.027-13.002-8.835-16.452
						c-4.918-3.528-11.767-1.688-15.695,2.531c-0.39,0.419,1.48,0.185,1.807-0.166c1.227-1.318,2.885-2.507,4.588-3.087
						c5.415-1.845,9.78,2.944,12.289,7.087c3.978,6.568,5.633,13.929,0.334,20.162c-0.381,0.449,1.498,0.197,1.807-0.166
						C498.62,455.125,500.13,451.877,499.902,448.065z"/>
					<g>
						<path style="fill:#3156AA;" d="M487.397,447.13c-1.662,0.941-3.779,0.343-4.73-1.336c-0.95-1.679-0.374-3.802,1.288-4.743
							c1.662-0.941,3.779-0.343,4.73,1.336C489.635,444.065,489.058,446.189,487.397,447.13z"/>
					</g>
				</g>
				<g>
					<path d="M486.542,444.233c-0.137-1.018-0.541-2.01-1.133-1.93c-0.592,0.08-0.718,1.143-0.581,2.161
						c0.137,1.019,0.541,2.01,1.133,1.931C486.553,446.315,486.679,445.251,486.542,444.233z"/>
				</g>
				<g>
					<path style="fill:#FFFFFF;" d="M462.755,574.479c1.452,0.008,2.903,0.015,4.354,0.023c0.314,0.002,0.705-0.575,0.243-0.577
						c-1.678-0.009-3.356-0.018-5.034-0.026c0.014-0.098,0.031-0.197,0.043-0.295c0.472-3.94,0.501-8.028,0.749-12
						c0.043-0.691-1.195-0.439-1.232,0.149c-0.248,3.972-0.277,8.06-0.749,12c-0.018,0.15-0.042,0.299-0.065,0.448
						c-3.448,2.856-6.897,5.711-10.345,8.567c-0.682,0.565,0.375,0.732,0.754,0.418c3.115-2.579,6.23-5.159,9.344-7.738
						c-0.644,2.725-1.866,5.43-1.906,8.21c-0.01,0.701,1.224,0.433,1.232-0.149c0.039-2.719,1.21-5.365,1.864-8.029
						c2,2.383,4,4.767,6.001,7.15c0.238,0.283,1.364-0.265,1.15-0.52C467.025,579.566,464.89,577.022,462.755,574.479z"/>
					<path style="fill:#FFFFFF;" d="M496.236,587.472c-2.563-3.054-5.125-6.107-7.688-9.161c1.742,0.009,3.485,0.018,5.227,0.027
						c0.376,0.002,0.846-0.69,0.292-0.693c-2.014-0.011-4.028-0.021-6.042-0.032c0.017-0.118,0.037-0.236,0.051-0.354
						c0.566-4.729,0.602-9.636,0.899-14.404c0.052-0.829-1.435-0.527-1.479,0.179c-0.297,4.768-0.333,9.675-0.899,14.404
						c-0.022,0.18-0.05,0.359-0.078,0.538c-4.139,3.428-8.279,6.856-12.418,10.284c-0.818,0.678,0.451,0.879,0.905,0.502
						c3.739-3.096,7.478-6.192,11.217-9.289c-0.773,3.272-2.241,6.518-2.288,9.855c-0.012,0.842,1.469,0.52,1.479-0.179
						c0.047-3.263,1.453-6.439,2.237-9.637c2.401,2.861,4.802,5.722,7.203,8.583C495.141,588.436,496.492,587.778,496.236,587.472z"
						/>
				</g>
			</g>
			<g>
				<path style="fill:#77A759;" d="M241.475,493.616c0.38-1.387,0.647-2.312,0.589-2.678
					C241.919,490.004,241.536,491.155,241.475,493.616z"/>
				<path style="fill:#77A759;" d="M414.168,746.794c-3.049-7.708-6.451-15.282-10.183-22.695
					c3.743-3.586,13.613-13.471,17.41-21.488c4.727-9.982,14.608-32.687,14.608-32.687c-34.861,10.203-36.28,36.335-34.805,48.781
					c-4.274-8.054-8.938-15.901-13.947-23.513c0.261-0.458,0.588-1.042,0.966-1.729c0.076-0.064,0.126-0.106,0.126-0.106
					s-0.03-0.019-0.051-0.031c2.545-4.647,7.158-13.721,8.29-20.381c1.584-9.317,4.498-30.288,4.498-30.288
					c-24.132,16.322-21.22,36.659-17.563,46.99c-3.383-4.896-6.904-9.69-10.565-14.363c-1.837-2.344-3.745-4.6-5.683-6.82
					c0.034-0.035,0.082-0.083,0.082-0.083s-0.105-0.051-0.271-0.128c-0.069-0.079-0.139-0.156-0.209-0.234
					c1.98-3.465,8.041-14.528,9.362-22.3c1.584-9.317,4.497-30.288,4.497-30.288c-26.318,17.801-20.473,40.378-16.573,49.542
					c-6.119-6.693-12.592-12.971-19.071-19.297c1.234-2.112,8.355-14.557,9.8-23.061c1.584-9.316,4.498-30.288,4.498-30.288
					c-29.915,20.235-18.278,46.635-15.173,52.493c-3.79-3.705-7.572-7.438-11.275-11.298c-3.996-4.167-7.915-8.41-11.778-12.706
					c1.282-2.197,8.091-14.146,9.482-22.334c1.538-9.044,4.366-29.403,4.366-29.403c-28.276,19.126-18.313,43.923-14.985,50.466
					c-7.445-8.327-14.67-16.86-21.77-25.486c2.149-3.802,7.69-14.111,8.935-21.431c1.551-9.125,4.406-29.667,4.406-29.667
					c-24.145,16.331-20.651,36.762-16.973,46.663c-2.922-3.582-5.831-7.172-8.723-10.771c-2.798-3.481-5.674-6.964-8.555-10.465
					c1.92-3.475,5.693-10.784,6.596-16.099c1.225-7.203,3.478-23.417,3.478-23.417c-17.33,11.722-16.619,26.122-14.164,34.513
					c-3.084-3.791-6.122-7.623-9.046-11.518c-3.048-8.351-11.517-27.494-17.156-37.329c-4.81-8.391-5.681-16.65-5.575-20.925
					c-2.261,8.24-8.665,33.338,22.987,61.65c1.817,2.252,3.628,4.495,5.414,6.736c-6.496-5.024-19.959-11.304-36.143,4.497
					c0,0,15.187,1.978,21.993,2.626c5.722,0.545,14.756-2.069,17.497-2.918c0.739,0.934,1.485,1.863,2.226,2.796
					c0.446,0.885,0.757,1.385,0.757,1.385s0.061-0.103,0.147-0.25c5.158,6.486,10.356,12.942,15.633,19.334
					c-8.8-5.968-24.85-11.441-43.85,7.109c0,0,19.241,2.506,27.863,3.327c6.963,0.662,17.819-2.372,21.744-3.566
					c5.293,6.303,10.648,12.553,16.112,18.706c-8.786-5.829-24.528-10.909-43.134,7.256c0,0,19.069,2.484,27.615,3.297
					c7.096,0.676,18.256-2.52,21.846-3.625c7.16,7.532,14.716,14.653,22.115,21.922c-7.71-6.564-25.983-17.076-48.216,4.63
					c0,0,19.642,2.559,28.446,3.396c8.804,0.838,23.715-4.117,23.715-4.117s-0.022-0.027-0.035-0.043
					c3.501,3.51,6.943,7.078,10.262,10.767c2.481,2.758,4.889,5.585,7.25,8.453c-8.613-2.709-30.486-5.877-42.307,26.061
					c0,0,18.404-6.668,26.532-9.943c6.398-2.578,14.726-10.201,17.99-13.336c5.275,6.593,10.262,13.427,14.908,20.496
					c-10.024-2.824-27.961-3.169-40.357,23.401c0,0,18.926-4.946,27.309-7.458c5.504-1.649,12.616-6.658,16.869-9.914
					c5.113,8.224,9.805,16.698,14.077,25.354c-9.84-4.893-35.323-12.876-54.759,22.231c0,0,23.054-4.178,33.29-6.41
					c7.888-1.72,18.794-8.751,23.396-11.894c0.192,0.402,0.4,0.797,0.589,1.2c3.492,7.421,6.624,14.986,9.418,22.659
					c-8.477,0.451-46.601,5.629-44.379,62.45c0,0,20.189-20.706,28.926-30.294c7.06-7.747,13.889-23.984,16.254-29.938
					c2.917,8.241,5.408,16.61,7.457,25.082c-10.469,6.663-35.208,28.307-15.036,75.768c0,0,10.849-27.963,15.321-40.655
					c1.711-4.856,2.693-11.48,3.256-17.811c2.374,14.319,3.452,28.87,3.064,43.529c-0.054,2.041,6.286,4.031,6.261,4.94
					c0.831-31.397-5.053-62.436-16.064-91.651c6.499-0.968,22.024-3.7,30.532-8.736c10.947-6.48,34.938-21.837,34.938-21.837
					C434.938,704.362,418.632,734.893,414.168,746.794z"/>
			</g>
			<g>
				<path style="fill:#FFF094;" d="M751.5,692.735c8.163-8.582,16.614-16.841,25.334-24.708c4.301-3.88,8.651-7.794,13.181-11.323
					c0.209-0.163,0.414-0.332,0.622-0.495c2.078-1.629,4.418,1.141,2.146,2.922c-11.183,8.763-21.746,18.851-31.88,29.091
					c-22.577,22.814-43.427,48.251-60.123,76.287c-9.519,15.984-17.717,32.88-23.613,50.402c-3.019,8.973-5.447,18.098-7.168,27.272
					c-1.978,10.544-2.602,21.039-3.92,31.579c-4.958,39.655-15.901,79.491-32.727,117.039c-5.239,11.692-11.05,23.175-17.536,34.255
					c-3.074,5.252-6.242,10.6-9.838,15.501c-0.163,0.222-0.319,0.451-0.482,0.673c-1.568,2.134-4.666,0.201-2.94-2.148
					c2.61-3.553,4.404-6.475,6.797-10.381c6.056-9.885,11.515-20.15,16.506-30.599c16.976-35.54,28.428-73.441,34.431-111.357
					c1.822-11.508,2.677-22.943,4.154-34.436c1.19-9.265,3.132-18.533,5.723-27.681c5.039-17.789,12.473-35.092,21.437-51.491
					C707.748,743.603,728.647,716.76,751.5,692.735z"/>
				<g>
					<path style="fill:#FFF094;" d="M728.82,882.485c-20.389,34.507-70.247,38.154-70.247,38.154
						C663.835,903.881,749.209,847.978,728.82,882.485z"/>
					<path style="fill:#FFF094;" d="M667.605,871.448c4.631-14.752,79.789-63.965,61.84-33.588
						C711.497,868.237,667.605,871.448,667.605,871.448z"/>
					<path style="fill:#FFF094;" d="M727.226,803.598c-15.928,26.957-54.878,29.806-54.878,29.806
						C676.459,820.313,743.154,776.641,727.226,803.598z"/>
					<path style="fill:#FFF094;" d="M731.397,776.155c-16.872,17.338-45.433,10.16-45.433,10.16
						C691.552,777.018,748.269,758.817,731.397,776.155z"/>
					<path style="fill:#FFF094;" d="M747.935,746.581c-15.717,16.151-42.323,9.464-42.323,9.464
						C710.818,747.385,763.652,730.429,747.935,746.581z"/>
					<path style="fill:#FFF094;" d="M763.924,720.383c-15.136,11.504-36.173,1.383-36.173,1.383
						C733.21,715.077,779.06,708.879,763.924,720.383z"/>
					<path style="fill:#FFF094;" d="M783.023,695.361c-13.344,10.142-31.891,1.219-31.891,1.219
						C755.945,690.682,796.367,685.219,783.023,695.361z"/>
					<path style="fill:#FFF094;" d="M778.411,672.323c3.913-4.795,36.778-9.237,25.929-0.991
						C793.49,679.577,778.411,672.323,778.411,672.323z"/>
					<path style="fill:#FFF094;" d="M784.015,663.085c2.286-7.383,39.789-32.163,30.872-16.939
						C805.97,661.37,784.015,663.085,784.015,663.085z"/>
					<path style="fill:#FFF094;" d="M653.461,934.884c0,0-44.771-16.721-47.138-54.372
						C603.956,842.862,656.642,917.839,653.461,934.884z"/>
					<path style="fill:#FFF094;" d="M662.928,888.767c0,0-36.443-20.707-34.393-54.547
						C630.586,800.379,667.49,873.999,662.928,888.767z"/>
					<path style="fill:#FFF094;" d="M646.957,796.232c22.953,12.572,20.876,55.204,20.876,55.204
						C656.248,849.348,624.005,783.66,646.957,796.232z"/>
					<path style="fill:#FFF094;" d="M675.591,813.647c-8.301-3.678-22.691-61.315-7.471-47.35S675.591,813.647,675.591,813.647z"/>
					<path style="fill:#FFF094;" d="M689.629,778.394c-5.823-6.281-1.132-64.634,7.461-46.431
						C705.684,750.166,689.629,778.394,689.629,778.394z"/>
					<path style="fill:#FFF094;" d="M714.519,736.399c-4.588-5.835,2.648-56.104,8.92-39.748
						C729.711,713.006,714.519,736.399,714.519,736.399z"/>
					<path style="fill:#FFF094;" d="M748.391,668.141c7.568,13.021-3.164,35.145-3.164,35.145
						C740.43,698.981,740.823,655.12,748.391,668.141z"/>
					<path style="fill:#FFF094;" d="M780.327,648.468c2.504,12.696-10.541,27.641-10.541,27.641
						C767.275,671.266,777.822,635.772,780.327,648.468z"/>
				</g>
			</g>
			<g>
				<path style="fill:#242477;" d="M571.092,829.943c-3.02-30.489-7.521-59.468-13.379-86.133
					c-10.168-46.287-24.676-86.923-43.121-120.779l-0.038-0.07l-0.065,0.046c-0.292,0.206-0.782,0.178-1.35,0.146
					c-1.381-0.079-3.275-0.187-3.589,3.347l-0.002,0.021l0.01,0.019c16.379,30.069,29.457,65.048,38.871,103.965
					c7.531,31.135,12.748,64.846,15.504,100.197c4.693,60.191,0.56,104.85,0.518,105.294l-0.007,0.078h11.46l0-0.071
					C575.983,898.669,574.365,862.985,571.092,829.943z"/>
				<path style="fill:#F4AF4C;" d="M559.174,643.391c-1.127-4.227-2.948-8.324-4.892-12.237c-1.369-2.757-2.987-5.444-5.234-7.581
					c-2.403-2.285-5.4-3.733-8.572-4.622c-5.02-1.407-10.348-1.761-15.505-0.999c-2.73,0.404-5.273,1.298-7.935,1.956
					c-1.465,0.362-5.175,1.238-5.5-1.075c-0.186-1.326,0.508-2.735,1.156-3.841c0.711-1.214,1.562-2.341,2.376-3.486
					c1.634-2.301,3.208-4.752,3.701-7.581c0.615-3.532-0.678-6.92-2.583-9.847c-0.988-1.453-2.161-2.799-3.34-4.097
					c-2.936-3.235-6.228-6.154-9.773-8.707c-4.901-3.529-10.323-6.342-16.069-8.212c-7.175-2.335-14.778-3.145-22.291-2.522
					c-4.497,0.373-8.946,1.241-13.278,2.497c-1.652,0.479-3.337,0.968-4.934,1.611c-0.262,0.105-0.515,0.232-0.754,0.382
					c-0.736,0.46-1.387,1.181-1.283,2.109c0.185,1.639,2.044,2.869,3.295,3.655c3.885,2.441,8.406,3.931,12.745,5.331
					c4.762,1.536,9.6,2.818,14.419,4.161c3.84,1.07,7.767,2.106,11.408,3.759c1.96,0.89,5.154,2.448,4.494,5.114
					c-0.475,1.917-2.424,3.819-4.335,4.322c-1.833,0.482-3.813,0.024-5.557-0.586c-5.298-1.854-10.044-5.361-14.591-8.563
					c-5.237-3.688-10.364-7.57-15.87-10.856c-2.277-1.359-4.636-2.636-7.135-3.54c-1.9-0.687-3.976-1.206-6.008-0.954
					c-0.869,0.108-1.708,0.37-2.473,0.797c-2.29,1.278-4.481,2.806-6.597,4.352c-3.597,2.628-7.278,5.583-9.866,9.255
					c-1.19,1.688-2.63,4.304-0.927,6.139c1.263,1.362,3.323,1.397,5.046,1.388c2.84-0.014,5.678-0.353,8.502-0.614
					c3.499-0.324,7.005-0.612,10.52-0.639c6.852-0.054,14.681,0.762,19.875,5.735c0.986,0.944,1.856,2.028,2.571,3.192
					c0.282,0.458,0.638,1.017,0.669,1.573c0.055,0.961-1.102,0.931-1.782,0.88c-1.684-0.124-3.357-0.604-4.989-1.01
					c-2.494-0.62-4.983-1.261-7.493-1.814c-6.461-1.423-13.081-2.323-19.708-1.981c-7.651,0.395-15.165,2.551-21.57,6.822
					c-4.119,2.747-7.555,6.305-10.808,10.01c-3.056,3.48-5.92,7.184-8.19,11.231c-2.285,4.073-4.748,9.611-3.03,14.34
					c1.052,2.894,3.781,4.594,6.834,4.395c3.609-0.235,6.078-2.934,9.235-4.335c4.877-2.164,10.201-3.396,15.41-4.453
					c6.431-1.304,12.955-2.208,19.499-2.688c5.654-0.414,11.461-0.622,17.085,0.24c2.525,0.387,7.924,1.228,7.977,4.69
					c0.047,3.066-3.634,4.265-6.038,4.857c-4.76,1.171-9.789,1.318-14.665,1.483c-6.189,0.209-12.383,0.217-18.573,0.412
					c-5.914,0.187-11.87,0.476-17.709,1.492c-4.21,0.733-8.946,1.803-12.261,4.684c-1.277,1.11-2.238,2.521-2.671,4.165
					c-1.132,4.299-1.917,8.994-1.611,13.454c0.144,2.092,0.562,4.607,2.21,6.088c1.229,1.104,2.844,1.032,4.256,0.319
					c1.373-0.693,2.61-1.732,3.953-2.501c2.055-1.177,4.163-2.262,6.286-3.311c5.615-2.774,11.375-5.3,17.27-7.419
					c2.856-1.027,5.754-1.963,8.71-2.659c2.233-0.526,4.557-0.97,6.863-0.89c1.441,0.05,3.401,0.316,4.142,1.752
					c0.748,1.451,0.194,3.244-0.812,4.411c-1.331,1.543-3.32,2.465-5.179,3.195c-2.623,1.03-5.372,1.727-8.114,2.358
					c-6.062,1.394-12.227,2.347-18.239,3.955c-2.405,0.643-4.829,1.379-7.051,2.518c-1.563,0.802-3.21,1.889-3.958,3.547
					c-1.062,2.353-0.835,5.359-0.558,7.85c0.391,3.507,1.246,6.959,2.243,10.337c1.642,5.564,3.715,11.013,6.052,16.321
					c0.277,0.629,0.43,1.357,1.067,1.676c1.675,0.839,3.399,1.587,5.141,2.275c2.823,1.116,5.728,2.073,8.707,2.674
					c2.805,0.567,5.875,0.908,8.664,0.072c1.205-0.361,2.337-0.975,3.208-1.894c0.977-1.031,1.564-2.414,2.152-3.688
					c1.586-3.441,2.849-7.025,4.168-10.573c1.298-3.492,2.584-7.022,4.287-10.343c1.009-1.967,2.508-4.968,4.893-5.537
					c2.994-0.714,4.995,3.002,5.637,5.324c1.094,3.957,0.63,8.319-0.427,12.23c-0.661,2.444-1.607,4.814-2.808,7.043
					c-1.083,2.009-2.57,3.788-3.535,5.859c-0.975,2.092-1.434,4.894,0.749,6.396c2.369,1.63,5.854,0.668,8.254-0.36
					c2.023-0.866,3.891-2.079,5.581-3.483c1.548-1.286,3.082-2.729,4.136-4.46c1.639-2.692,2.118-5.903,2.127-9.008
					c0.01-3.616-0.566-7.214-1.209-10.763c-0.675-3.726-1.477-7.432-1.991-11.186c-0.451-3.29-0.745-6.732-0.03-10.007
					c0.433-1.985,1.385-4.618,3.263-5.708c1.089-0.632,2.06-0.019,2.705,0.917c1.055,1.53,1.572,3.467,2.008,5.248
					c0.63,2.575,1.014,5.21,1.293,7.845c0.675,6.38,0.733,12.857,0.201,19.25c-0.447,5.375-1.169,11.178-3.617,16.062
					c-0.814,1.623-2.362,3-2.798,4.789c-0.249,1.022,0.18,1.953,1.138,2.405c1.403,0.662,3.233,0.377,4.691,0.103
					c2.464-0.463,4.855-1.331,7.139-2.35c5.999-2.676,11.589-6.599,15.934-11.543c4.371-4.973,7.432-11.077,7.118-17.82
					c-0.308-6.607-3.056-12.928-6.109-18.694c-2.878-5.436-6.359-10.513-9.33-15.892c-1.003-1.815-4.187-7.056-0.468-7.889
					c1.964-0.44,4.045,0.276,5.764,1.19c2.549,1.355,4.743,3.353,6.677,5.472c4.964,5.438,8.608,12.197,10.83,19.193
					c2.317,7.295,3.103,15.354,0.789,22.753c-0.58,1.852-1.351,3.645-2.311,5.332c-0.407,0.716-1.124,1.42-1.259,2.24
					c-0.147,0.891,0.047,2.015,0.827,2.566c0.594,0.419,1.365,0.33,2.028,0.147c1.628-0.45,3.112-1.477,4.466-2.449
					c1.868-1.341,3.611-2.826,5.515-4.121c3.207-2.182,6.493-4.249,9.497-6.713c3.252-2.666,6.187-5.792,8.123-9.557
					c2.268-4.409,2.89-9.391,2.249-14.278c-0.957-7.291-4.296-14.145-8.089-20.353c-2.804-4.59-5.985-8.944-9.348-13.138
					c-0.537-0.67-0.702-0.791-0.773-1.582c-0.051-0.558-0.067-1.216,0.197-1.73c1.16-2.258,5.394,1.974,6.182,2.704
					c4.206,3.893,7.985,8.397,10.85,13.371c2.433,4.224,4.161,8.838,4.948,13.655c0.353,2.163,0.242,4.464,0.841,6.576
					c0.247,0.873,0.717,1.955,1.652,2.278c0.992,0.344,2.033-0.386,2.747-0.996c1.301-1.111,2.333-2.549,3.238-3.989
					c1.808-2.874,3.006-5.993,3.826-9.277C561.316,662.179,561.57,652.375,559.174,643.391z M408.318,724.179
					c0.001,0.003,0.002,0.005,0.003,0.008C408.308,724.181,408.309,724.179,408.318,724.179z"/>
				<path style="fill:#008C83;" d="M411.135,634.719c-1.513-1.184-3.726-1.297-5.466-0.608c-1.772,0.624-3.51,1.408-5.158,2.308
					c-1.735,0.948-4.852,2.626-4.842,4.964c0.005,1.217,1.094,2.22,2.107,2.719c1.302,0.642,2.795,0.512,4.137,0.068
					c3.394-1.124,5.995-3.786,8.793-5.883c0.607-0.455,1.289-0.942,1.38-1.76C412.168,635.787,411.688,635.152,411.135,634.719z"/>
				<g>
					<path style="fill:#008C83;" d="M445.582,683.75c-6.209,6.846-12.21,13.956-17.678,21.169
						C427.903,704.92,435.132,695.993,445.582,683.75z"/>
					<path style="fill:#008C83;" d="M512.317,619.468c-1.067-1.37-0.153-2.87-0.408-2.6c-15.845,9.339-46.744,43.937-66.327,66.882
						c30.524-33.654,66.11-60.932,68.546-62.787c0.086-0.066,0.858-0.703,0.858-0.703S513.49,620.976,512.317,619.468z"/>
				</g>
			</g>
			<g>
				<path style="fill:#FF5D2A;" d="M423.927,937.11c1.469,2.628,4.592,4.49,7.234,5.681c3.961,1.785,8.359,2.085,12.614,1.415
					c10.024-1.579,19.127-7.299,27.813-12.206c2.336-1.32,4.674-2.636,7.042-3.897c2.149-1.145,4.329-2.395,6.637-3.192
					c3.452-1.191,7.159-1.12,10.494,0.401c3.492,1.592,6.653,4.636,8.494,8.017c4.34,9.373,9.491,18.52,16.209,26.413
					c4.139,4.863,8.984,9.435,14.747,12.31c3.169,1.581,7.043,2.875,10.609,2.012c2.2-0.532,4.39-2.133,4.612-4.539
					c0.177-1.919-0.779-3.998-1.624-5.654c-1.519-2.973-3.651-5.609-5.802-8.142c-6.765-7.968-13.972-15.503-20.213-23.914
					c-0.787-1.06-1.987-2.417-2.234-3.768c-0.008-0.042-0.007-0.165-0.011-0.275c0.33,0.032,0.792,0.079,0.853,0.095
					c3.543,0.916,6.921,3.133,10.086,4.889c9.819,5.449,19.53,11.615,30.128,15.466c3.111,1.13,7.318,2.662,10.6,1.32
					c1.621-0.663,2.978-2.164,4.069-3.487c0.982-1.19,1.835-2.56,2.121-4.098c0.542-2.915-1.397-5.343-3.556-7.04
					c-3.237-2.545-7.201-4.167-11.03-5.585c-9.504-3.521-19.441-5.672-29.171-8.447c-1.355-0.386-15.413-4.055-11.485-7.188
					c1.367-1.091,3.283-1.555,4.963-1.867c2.443-0.455,4.947-0.558,7.427-0.543c6.471,0.038,12.937,0.894,19.329,1.83
					c6.993,1.024,13.954,2.253,20.933,3.364c6.003,0.956,12.055,1.92,18.136,2.185c3.35,0.146,7.694,0.405,10.572-1.68
					c2.593-1.878,1.909-5.251-0.247-7.235c-3.583-3.298-9.52-3.835-14.118-4.284c-6.881-0.671-13.819-0.628-20.724-0.707
					c-6.39-0.074-12.929-0.017-19.239-1.166c-2.099-0.382-4.347-0.893-6.155-2.081c-0.568-0.373-1.52-1.03-1.241-1.837
					c0.201-0.58,1.493-0.943,2.16-1.166c1.678-0.563,3.425-0.923,5.161-1.257c5.046-0.97,10.155-1.611,15.245-2.297
					c11.43-1.54,23.182-2.777,34.225-6.253c3.58-1.127,7.58-2.555,10.241-5.333c0.913-0.953,1.645-2.122,1.773-3.461
					c0.199-2.094-0.593-4.931-1.873-6.604c-1.267-1.656-3.244-2.06-5.23-1.909c-2.921,0.222-5.791,1.258-8.561,2.141
					c-4.104,1.309-8.211,2.607-12.425,3.523c-5.213,1.133-10.421,1.406-15.722,1.799c-10.076,0.746-20.037,2.534-30.103,3.326
					c-1.637,0.129-3.29,0.236-4.933,0.156c-0.961-0.047-2.132-0.094-2.986-0.599c-2.019-1.192,0.765-3.818,1.748-4.683
					c2.714-2.385,6.727-3.535,10.079-4.648c5.514-1.832,11.149-3.297,16.776-4.734c13.244-3.382,26.605-6.39,39.657-10.478
					c5.464-1.712,10.932-3.592,16.073-6.136c3.453-1.708,7.205-3.806,9.497-7.008c1.515-2.116,2.101-5.11,0.389-7.308
					c-1.723-2.213-4.991-2.642-7.594-2.751c-4.37-0.183-8.774,0.529-13.045,1.377c-5.476,1.088-10.879,2.542-16.234,4.114
					c-11.192,3.287-22.19,7.179-33.232,10.926c-3.994,1.355-7.994,2.728-12.061,3.854c-1.271,0.352-2.557,0.696-3.865,0.885
					c-0.446,0.064-1.541,0.316-1.93-0.064c-1.069-1.044,3.623-3.912,4.11-4.207c4.861-2.945,10.439-4.75,15.836-6.425
					c13.319-4.135,27.005-6.934,40.385-10.853c5.042-1.477,10.223-3.033,14.86-5.552c2.239-1.216,5.796-3.32,5.676-6.312
					c-0.126-3.168-3.574-4.569-6.247-4.86c-4.614-0.503-9.413,0.653-13.845,1.812c-11.282,2.951-22.008,7.606-33.078,11.209
					c-2.001,0.651-4.024,1.283-6.088,1.706c-1.177,0.241-2.588,0.561-3.781,0.237c-2.767-0.751,0.48-4.706,1.406-5.684
					c3.577-3.776,8.594-6.265,13.195-8.532c6.282-3.095,12.776-5.75,19.26-8.385c6.539-2.658,13.106-5.254,19.562-8.109
					c5.282-2.336,10.617-4.798,15.396-8.073c2.726-1.869,6.305-4.519,6.835-8.053c0.302-2.016-0.801-4.174-1.705-5.894
					c-0.824-1.568-1.998-3.085-3.933-3.021c-2.085,0.068-4.146,1.367-5.931,2.313c-3.602,1.91-7.207,3.779-11.008,5.27
					c-4.795,1.882-9.766,3.221-14.535,5.188c-4.581,1.889-9.055,4.019-13.508,6.189c-3.423,1.668-6.824,3.453-10.368,4.855
					c-0.828,0.328-4.305,1.949-4.338,0.053c-0.019-1.059,0.887-2.308,1.413-3.149c0.566-0.904,1.186-1.772,1.827-2.624
					c1.688-2.246,3.509-4.392,5.337-6.525c9.132-10.655,19.188-20.909,26.596-32.897c2.219-3.592,5.289-8.528,4.461-12.982
					c-0.655-3.522-4.537-5.285-7.798-4.256c-4.195,1.325-7.248,5.478-9.604,8.947c-3.234,4.76-5.861,9.905-8.59,14.961
					c-1.228,2.274-2.459,4.555-3.854,6.732c-0.84,1.312-1.805,2.997-3.148,3.867c-2.954,1.914-3.932-4.305-3.872-5.952
					c0.193-5.276,2.651-10.49,4.806-15.208c2.826-6.188,6.004-12.208,8.868-18.378c2.618-5.639,5.181-11.5,6.303-17.65
					c0.838-4.598,0.744-9.815-2.605-13.445c-2.685-2.91-7.232-4.813-11.215-4.32c-3.314,0.41-6.06,2.566-8.039,5.149
					c-2.579,3.366-4.111,7.489-5.302,11.518c-1.485,5.028-2.439,10.206-3.201,15.387c-1.527,10.373-2.146,20.838-3.232,31.259
					c-0.34,3.267-0.594,6.703-1.587,9.853c-0.143,0.455-0.301,0.925-0.537,1.342c-0.065,0.114-0.183,0.279-0.224,0.354
					c-0.009,0.017-0.015,0.027-0.022,0.039c-0.456,0.023-1.015-0.396-1.424-0.881c-1.797-2.132-2.982-4.858-4.018-7.417
					c-1.314-3.243-2.363-6.591-3.339-9.948c-1.972-6.782-3.504-13.707-5.757-20.405c-0.762-2.265-1.579-4.677-2.989-6.635
					c-0.766-1.065-1.852-2.049-3.254-1.693c-3.766,0.956-4.117,5.65-3.89,8.769c0.436,5.98,2.318,11.887,4.029,17.599
					c2.063,6.886,4.329,13.722,6.047,20.707c1.252,5.093,2.776,11.048,1.516,16.288c-0.356,1.481-1.161,3.506-2.753,4.044
					c-1.266,0.428-2.417-0.467-3.199-1.372c-1.25-1.445-2.078-3.264-2.816-5.007c-1.079-2.547-1.945-5.185-2.763-7.825
					c-1.995-6.44-3.669-12.975-5.559-19.446c-1.796-6.148-3.677-12.38-6.519-18.14c-1.566-3.174-3.65-7.236-7.295-8.337
					c-1.775-0.536-3.655-0.242-4.809,1.33c-1.444,1.968-1.087,5.035-0.547,7.271c0.953,3.944,2.618,7.757,4.124,11.511
					c4.951,12.338,10.257,24.536,14.7,37.073c2.083,5.878,4.053,11.849,5.312,17.966c0.766,3.721,1.764,8.444,0.275,12.122
					c-1.226,3.027-4.579,2.659-6.914,1.088c-3.74-2.516-6.244-6.914-8.388-10.754c-6.34-11.354-10.761-23.701-16.009-35.57
					c-2.154-4.872-4.353-9.848-7.327-14.289c-1.444-2.157-3.756-5.52-6.792-4.945c-4.795,0.909-4.578,6.384-3.831,10.097
					c1.357,6.74,4.392,13.191,7.434,19.31c4.61,9.274,10.183,18.023,14.922,27.236c3.173,6.17,6.212,12.418,8.955,18.792
					c2.264,5.262,4.655,10.776,5.625,16.458c0.224,1.315,0.644,3.435-0.142,4.66c-0.539,0.839-1.761,0.446-2.475,0.005
					c-1.235-0.762-2.156-2.056-2.95-3.238c-1.221-1.818-2.236-3.775-3.192-5.743c-5.683-11.697-9.742-24.172-14.567-36.232
					c-2.413-6.031-4.918-12.054-7.928-17.816c-2.097-4.015-4.482-8.48-8.08-11.369c-3.198-2.568-7.857-2.35-10.837,0.523
					c-3.955,3.812-3.81,10.539-3.228,15.558c0.336,2.896,0.941,5.778,1.85,8.549c0.618,1.883,1.353,3.812,2.624,5.358
					c2.638,3.208,5.212,6.46,7.686,9.797c8.883,11.98,17.376,24.922,22.415,39.043c2.221,6.224,3.946,13.189,2.69,19.811
					c-0.385,2.032-1.317,6.835-4.38,5.549c-2.909-1.221-4.955-4.891-6.53-7.419c-2.816-4.521-5.211-9.303-7.565-14.075
					c-4.992-10.114-9.433-20.653-15.397-30.251c-1.55-2.494-3.506-5.975-6.336-7.229c-1.543-0.683-3.284,0.167-4.723,0.762
					c-2.219,0.917-4.394,2.321-5.667,4.412c-1.41,2.317-1.298,5.068-0.545,7.591c1.31,4.389,4.185,8.29,7.051,11.785
					c3.653,4.456,7.39,8.801,10.864,13.407c4.436,5.88,8.686,11.92,12.528,18.208c3.299,5.4,6.771,11.236,8.231,17.461
					c0.554,2.363,0.945,9.092-3.413,7.47c-1.759-0.655-3.125-2.338-4.248-3.764c-1.743-2.212-3.233-4.622-4.691-7.026
					c-3.442-5.673-6.629-11.522-10.511-16.916c-2.917-4.052-6.764-9.064-11.936-10.208c-4.072-0.901-7.596,1.319-7.763,5.593
					c-0.1,2.548,0.591,5.126,1.388,7.523c1.086,3.268,2.549,6.41,4.174,9.442c3.162,5.9,6.982,11.756,11.779,16.468
					c0.892,0.877,1.833,1.718,2.859,2.436c0.52,0.363,1.17,0.656,1.558,1.179c0.573,0.772,0.187,1.531-0.433,2.131
					c-1.124,1.086-2.658,1.812-4.038,2.501c-2.055,1.026-4.17,1.933-6.287,2.823c-5.029,2.115-10.115,4.097-15.069,6.384
					c-4.2,1.939-8.605,4.052-12.06,7.192C424.225,931.311,422.28,934.163,423.927,937.11z M550.966,771.991
					C550.902,772.099,550.927,772.016,550.966,771.991L550.966,771.991z"/>
				<path style="fill:#3D3B83;" d="M490.224,924.648c0.64-0.124,1.667-0.427,2.116-0.953c8.37-9.792,15.442-20.646,21.799-31.829
					c6.732-11.844,12.675-24.13,18.124-36.613c5.006-11.467,9.589-23.118,13.84-34.885c3.182-8.807,6.18-17.682,8.975-26.62
					c0.862-2.756,1.705-5.518,2.52-8.288c0.247-0.839,0.492-1.68,0.732-2.521c0.11-0.384,0.363-0.9,0.369-1.303
					c0.001-0.051,0.032-0.114,0.046-0.164c0.137-0.498-1.116-0.126-1.29-0.076c-0.422,0.121-1.701,0.475-1.847,1.006
					c-0.904,3.282-1.896,6.542-2.897,9.795c-2.596,8.433-5.379,16.808-8.324,25.126c-4.064,11.482-8.44,22.856-13.199,34.068
					c-5.288,12.458-11.042,24.735-17.523,36.62c-6.238,11.439-13.141,22.6-21.296,32.783c-0.953,1.19-1.927,2.363-2.918,3.522
					C488.999,924.847,489.949,924.701,490.224,924.648z"/>
			</g>
		</g>
	</g>
</g>
</svg>
